<?xml version="1.0" encoding="iso-8859-1"?>
<!-- Generator: Adobe Illustrator 19.0.0, SVG Export Plug-In . SVG Version: 6.00 Build 0)  -->
<svg version="1.1" id="Capa_1" xmlns="http://www.w3.org/2000/svg" xmlns:xlink="http://www.w3.org/1999/xlink" x="0px" y="0px"
	 viewBox="0 0 480 480" style="enable-background:new 0 0 480 480;" xml:space="preserve">
<g>
	<g>
		<path d="M240,232c-17.673,0-32-14.327-32-32s14.327-32,32-32c17.673,0,32,14.327,32,32h16c-0.043-23.397-16.934-43.361-40-47.28
			V136h-16v16.72c-26.112,4.572-43.575,29.446-39.003,55.559C197,231.142,216.789,247.866,240,248c17.673,0,32,14.327,32,32
			c0,17.673-14.327,32-32,32c-17.673,0-32-14.327-32-32h-16c0.043,23.397,16.934,43.361,40,47.28V344h16v-16.72
			c26.112-4.572,43.575-29.446,39.003-55.559C283,248.858,263.211,232.134,240,232z"/>
	</g>
</g>
<g>
	<g>
		<path d="M352,0H128c-13.255,0-24,10.745-24,24v432c0,13.255,10.745,24,24,24h224c13.255,0,24-10.745,24-24V24
			C376,10.745,365.255,0,352,0z M360,456c0,4.418-3.582,8-8,8H128c-4.418,0-8-3.582-8-8v-24h240V456z M360,416H120V284.12
			c18.506,50.317,66.388,83.787,120,83.88c53.612-0.093,101.494-33.563,120-83.88V416z M128,240c0-61.856,50.144-112,112-112
			s112,50.144,112,112s-50.144,112-112,112C178.172,351.934,128.066,301.828,128,240z M360,195.88
			c-18.506-50.317-66.388-83.787-120-83.88c-53.612,0.093-101.494,33.563-120,83.88V64h240V195.88z M360,48H120V24
			c0-4.418,3.582-8,8-8h224c4.418,0,8,3.582,8,8V48z"/>
	</g>
</g>
<g>
	<g>
		<rect x="224" y="24" width="32" height="16"/>
	</g>
</g>
<g>
</g>
<g>
</g>
<g>
</g>
<g>
</g>
<g>
</g>
<g>
</g>
<g>
</g>
<g>
</g>
<g>
</g>
<g>
</g>
<g>
</g>
<g>
</g>
<g>
</g>
<g>
</g>
<g>
</g>
</svg>
