<?xml version="1.0" encoding="UTF-8"?>
<svg width="24px" height="24px" viewBox="0 0 24 24" version="1.1" xmlns="http://www.w3.org/2000/svg" xmlns:xlink="http://www.w3.org/1999/xlink">
    <!-- Generator: Sketch 52.6 (67491) - http://www.bohemiancoding.com/sketch -->
    <title>ico-instagram</title>
    <desc>Created with Sketch.</desc>
    <g id="Final" stroke="none" stroke-width="1" fill="none" fill-rule="evenodd">
        <g id="Home-H" transform="translate(-178.000000, -5302.000000)" fill="#FFFFFF" fill-rule="nonzero">
            <g id="footer" transform="translate(0.000000, 5178.000000)">
                <g id="social" transform="translate(90.000000, 124.000000)">
                    <path d="M95.8,2 L104.2,2 C107.4,2 110,4.6 110,7.8 L110,16.2 C110,19.4032515 107.403252,22 104.2,22 L95.8,22 C92.6,22 90,19.4 90,16.2 L90,7.8 C90,4.59674845 92.5967485,2 95.8,2 Z M95.6,4 C93.6117749,4 92,5.6117749 92,7.6 L92,16.4 C92,18.39 93.61,20 95.6,20 L104.4,20 C106.388225,20 108,18.3882251 108,16.4 L108,7.6 C108,5.61 106.39,4 104.4,4 L95.6,4 Z M105.25,5.5 C105.940356,5.5 106.5,6.05964406 106.5,6.75 C106.5,7.44035594 105.940356,8 105.25,8 C104.559644,8 104,7.44035594 104,6.75 C104,6.05964406 104.559644,5.5 105.25,5.5 Z M100,7 C102.761424,7 105,9.23857625 105,12 C105,14.7614237 102.761424,17 100,17 C97.2385763,17 95,14.7614237 95,12 C95,9.23857625 97.2385763,7 100,7 Z M100,9 C98.3431458,9 97,10.3431458 97,12 C97,13.6568542 98.3431458,15 100,15 C101.656854,15 103,13.6568542 103,12 C103,10.3431458 101.656854,9 100,9 Z" id="Shape"></path>
                </g>
            </g>
        </g>
    </g>
</svg>