<?xml version="1.0" encoding="UTF-8"?>
<svg width="24px" height="24px" viewBox="0 0 24 24" version="1.1" xmlns="http://www.w3.org/2000/svg" xmlns:xlink="http://www.w3.org/1999/xlink">
    <!-- Generator: Sketch 52.6 (67491) - http://www.bohemiancoding.com/sketch -->
    <title>ico-twitter</title>
    <desc>Created with Sketch.</desc>
    <g id="Final" stroke="none" stroke-width="1" fill="none" fill-rule="evenodd">
        <g id="Home-H" transform="translate(-134.000000, -5302.000000)" fill="#FFFFFF">
            <g id="footer" transform="translate(0.000000, 5178.000000)">
                <g id="social" transform="translate(90.000000, 124.000000)">
                    <path d="M66.46,6 C65.69,6.35 64.86,6.58 64,6.69 C64.88,6.16 65.56,5.32 65.88,4.31 C65.05,4.81 64.13,5.16 63.16,5.36 C62.37,4.5 61.26,4 60,4 C57.65,4 55.73,5.92 55.73,8.29 C55.73,8.63 55.77,8.96 55.84,9.27 C52.28,9.09 49.11,7.38 47,4.79 C46.63,5.42 46.42,6.16 46.42,6.94 C46.42,8.43 47.17,9.75 48.33,10.5 C47.62,10.5 46.96,10.3 46.38,10 C46.38,10 46.38,10 46.38,10.03 C46.38,12.11 47.86,13.85 49.82,14.24 C49.46,14.34 49.08,14.39 48.69,14.39 C48.42,14.39 48.15,14.36 47.89,14.31 C48.43,16 50,17.26 51.89,17.29 C50.43,18.45 48.58,19.13 46.56,19.13 C46.22,19.13 45.88,19.11 45.54,19.07 C47.44,20.29 49.7,21 52.12,21 C60,21 64.33,14.46 64.33,8.79 C64.33,8.6 64.33,8.42 64.32,8.23 C65.16,7.63 65.88,6.87 66.46,6 Z" id="Path"></path>
                </g>
            </g>
        </g>
    </g>
</svg>