<?xml version="1.0" encoding="UTF-8"?>
<svg width="24px" height="24px" viewBox="0 0 24 24" version="1.1" xmlns="http://www.w3.org/2000/svg" xmlns:xlink="http://www.w3.org/1999/xlink">
    <!-- Generator: Sketch 52.6 (67491) - http://www.bohemiancoding.com/sketch -->
    <title>ico-linkedin</title>
    <desc>Created with Sketch.</desc>
    <g id="Final" stroke="none" stroke-width="1" fill="none" fill-rule="evenodd">
        <g id="Home-H" transform="translate(-222.000000, -5302.000000)" fill="#FFFFFF" fill-rule="nonzero">
            <g id="footer" transform="translate(0.000000, 5178.000000)">
                <g id="social" transform="translate(90.000000, 124.000000)">
                    <path d="M151.039167,19.0433333 L148.0775,19.0433333 L148.0775,14.4025 C148.0775,13.2958333 148.055,11.8716667 146.534167,11.8716667 C144.99,11.8716667 144.754167,13.0758333 144.754167,14.3208333 L144.754167,19.0433333 L141.7925,19.0433333 L141.7925,9.5 L144.6375,9.5 L144.6375,10.8008333 L144.675833,10.8008333 C145.073333,10.0508333 146.04,9.25916667 147.484167,9.25916667 C150.485,9.25916667 151.04,11.2341667 151.04,13.805 L151.04,19.0433333 L151.039167,19.0433333 Z M138.4475,8.19416667 C137.494167,8.19416667 136.728333,7.4225 136.728333,6.47333333 C136.728333,5.525 137.495,4.75416667 138.4475,4.75416667 C139.3975,4.75416667 140.1675,5.525 140.1675,6.47333333 C140.1675,7.4225 139.396667,8.19416667 138.4475,8.19416667 Z M139.9325,19.0433333 L136.9625,19.0433333 L136.9625,9.5 L139.9325,9.5 L139.9325,19.0433333 Z M152.520833,2 L135.475833,2 C134.66,2 134,2.645 134,3.44083333 L134,20.5591667 C134,21.3558333 134.66,22 135.475833,22 L152.518333,22 C153.333333,22 154,21.3558333 154,20.5591667 L154,3.44083333 C154,2.645 153.333333,2 152.518333,2 L152.520833,2 Z" id="Shape"></path>
                </g>
            </g>
        </g>
    </g>
</svg>