<?xml version="1.0" encoding="UTF-8"?>
<svg width="622px" height="92px" viewBox="0 0 622 92" version="1.1" xmlns="http://www.w3.org/2000/svg" xmlns:xlink="http://www.w3.org/1999/xlink">
    <!-- Generator: Sketch 52.5 (67469) - http://www.bohemiancoding.com/sketch -->
    <title>logo</title>
    <desc>Created with Sketch.</desc>
    <g id="Logo" stroke="none" stroke-width="1" fill="none" fill-rule="evenodd">
        <g id="Exibihit-B" transform="translate(-169.000000, -224.000000)">
            <g id="Group">
                <g id="logo" transform="translate(169.000000, 224.000000)">
                    <g id="full-logo" fill="#FF173D">
                        <path d="M43.7306092,36.7165474 L43.7306092,40.2431167 C43.7306092,49.8836729 35.3620168,56.8810573 23.8323613,56.8810573 C16.7528064,56.8810573 12.5260395,53.8628855 12.5260395,48.8069934 C12.5260395,41.1335352 21.4142247,37.5338656 42.2430988,36.7702368 L43.7306092,36.7165474 Z M29.2184747,0 C11.8071452,0 2.30862503,10.6255507 2.30862503,16.0845264 C2.30862503,18.4782489 3.37308578,20.4916024 5.30560621,21.75413 C6.79477396,22.7254956 8.36805441,22.9823789 8.99247728,22.9823789 L11.1147692,22.965446 L11.1147692,21.4571861 C13.667569,16.9129956 18.7391921,11.717924 28.5770635,11.717924 C38.4903464,11.717924 43.7306092,16.6309196 43.7306092,25.9266244 L43.7306092,26.0934747 C23.2116675,26.6146751 -0.000123639096,29.7687225 -0.000123639096,48.8069934 C-0.000123639096,60.5418502 8.83709668,67.8324615 23.0625021,67.8324615 C31.2993318,67.8324615 38.6929627,64.967924 44.0484143,59.8294328 C44.7088855,64.5491465 47.0884877,66.937087 51.1478579,66.937087 C53.0240269,66.937087 55.9998764,66.1441355 55.9998764,64.0180341 L55.9998764,25.6718062 C55.9998764,9.83714207 45.7377123,0 29.2184747,0 Z" id="Fill-18"></path>
                        <path d="M82.1205099,55.4297272 L117.272144,13.1790293 C119.675533,10.2066246 121,8.56966617 121,6.44497954 L121,5.78472166 C121,2.10809723 118.773288,7.10542736e-15 114.890481,7.10542736e-15 L71.3706416,7.10542736e-15 C66.1055672,7.10542736e-15 65,2.93051644 65,5.38906462 L65,6.18079344 C65,8.63934162 66.1055672,11.5698581 71.3706416,11.5698581 L102.233881,11.5698581 L68.7278563,53.0288272 C66.3244671,56.0012318 65,57.6381903 65,60.027063 L65,61.2148636 C65,64.891488 67.2267116,67 71.1091095,67 L114.548432,67 C119.813097,67 120.917844,64.0690688 120.917844,61.6109354 L120.917844,60.8187918 C120.917844,58.3606584 119.813097,55.4297272 114.548432,55.4297272 L82.1205099,55.4297272 Z" id="Fill-21"></path>
                        <path d="M161.064542,59.4538462 C174.252224,59.4538462 183,49.0692153 183,33.7581225 C183,18.8458098 173.860331,8.06153846 161.326085,8.06153846 C150.489761,8.06153846 142.917242,13.9193478 139,23.1067779 L139,38.0178 C139,50.1339196 149.314504,59.4538462 161.064542,59.4538462 Z M138.629306,87.5494536 C138.629306,90.7622775 137.036164,91.7 134.779856,91.7 L133.850737,91.7 C131.593142,91.7 130,90.7622775 130,87.5494536 L130,2.00779873 C130,1.73963086 131.32719,1.07007627 132.920761,1.07007627 C135.841093,1.07007627 138.496759,2.54283686 138.496759,9.50395549 L138.496759,12.3153927 C144.205733,4.41741671 151.639968,1.42108547e-14 162.128369,1.42108547e-14 C178.85722,1.42108547e-14 192,13.1190313 192,33.3332651 C192,53.4138475 179.121886,66.9342655 161.59775,66.9342655 C150.312349,66.9342655 142.214091,60.9100043 138.629306,54.7520917 L138.629306,87.5494536 Z" id="Fill-23"></path>
                        <path d="M220.992645,59.85 C234.178022,59.85 244,51.843538 244,40.6870759 L244,34.9125 L240.232749,35.043538 C218.301317,35.831038 207,39.6370759 207,49.481038 C207,55.781462 212.247459,59.85 220.992645,59.85 M242.950738,27.7300905 L244.308746,27.7300905 L244.308746,25.4186275 C244.308746,14.2728342 237.789867,8.15621899 226.110994,8.15621899 C215.654549,8.15621899 209.000527,13.4568171 205.468827,20.117151 C205.468827,20.2541786 200.444415,19.7091424 200.444415,14.952263 C200.444415,10.3310936 209.678873,-7.10542736e-15 226.790656,-7.10542736e-15 C243.2219,-7.10542736e-15 253,9.51551563 253,25.1476465 L253,65.9265455 C253,66.198844 251.64243,66.8778336 250.012381,66.8778336 C247.025202,66.8778336 244.443889,65.3832661 244.443889,58.3149236 L244.443889,55.8681896 C239.283895,63.3441015 230.592641,67.83 220.271777,67.83 C206.148489,67.83 198,60.6250691 198,49.750696 C198,34.6627229 213.074552,28.40908 242.950738,27.7300905" id="Fill-25"></path>
                        <path d="M259.00931,2.57417329 C258.872182,2.03194263 260.245689,1.42108547e-14 263.404089,1.42108547e-14 C266.563377,1.42108547e-14 268.212029,1.35535782 270.134051,6.09539027 L290.785809,54.5712199 L308.867834,6.36672441 C310.516043,1.62537905 312.576525,1.42108547e-14 315.461111,1.42108547e-14 C317.933424,1.42108547e-14 320.131035,1.8967132 319.993906,2.30327678 L288.402359,85.8759439 C286.617022,90.616414 284.419855,91.7 282.084227,91.7 C279.611915,91.7 277.277618,89.8032868 277.414303,89.3971609 L286.200044,66.7740052 L259.00931,2.57417329 Z" id="Fill-27"></path>
                        <path d="M370.966015,24.0955213 C383.038754,22.9722077 393.780633,31.8867254 394.904451,43.9637308 C396.027843,56.0398843 387.114832,66.7814373 375.042093,67.9043249 C362.959556,69.0284904 352.219381,60.1156766 351.095563,48.0390972 C349.972171,35.9620918 358.883479,25.2196868 370.966015,24.0955213 M375.598106,73.8776842 C390.985361,72.445717 402.309926,58.8023432 400.87784,43.4058324 C399.445345,28.0080942 385.799418,16.690235 370.411754,18.1222021 C355.009774,19.5553967 343.690118,33.1967249 345.122204,48.5944631 C346.55429,63.9905647 360.196126,75.3104696 375.598106,73.8776842" id="Fill-31"></path>
                        <path d="M329.289448,31.642315 L326,30.5096672 L335.548743,24.2789771 L339.23726,35.0676213 L335.919704,33.9252953 C334.311923,38.8380618 333.661017,44.1493201 334.169407,49.6147632 C336.161631,71.0232449 355.201031,86.823233 376.620074,84.8303941 C383.048292,84.2325043 388.971178,82.0963092 394.0584,78.8197457 L396.158334,85.7542917 C390.549977,89.0271689 384.156963,91.1579822 377.268318,91.7990526 C351.965064,94.1529144 329.553476,75.5559278 327.200763,50.2623322 C326.596814,43.7686943 327.373351,37.4652029 329.289448,31.642315 Z M407.887557,63.4058044 C411.039392,57.113769 412.528983,49.8974823 411.830618,42.3902501 C409.838395,20.9810133 390.795973,5.17800457 369.3943,7.16933319 C361.034989,7.94708783 353.531948,11.3218807 347.60844,16.4207921 L345.417278,9.18498271 C351.988792,4.25226051 359.964252,1.01810039 368.747882,0.200760674 C394.027616,-2.15175678 416.445924,16.4418691 418.799309,41.7381532 C419.60162,50.363889 417.966769,58.6546873 414.461176,65.9291801 L417.295438,67.0171513 L407.535063,72.9107995 L404.225312,62 L407.887557,63.4058044 Z" id="Combined-Shape"></path>
                        <path d="M372.831647,53.6153988 C370.680149,53.8158856 368.902521,53.3070526 366.810661,52.4478822 L365.52659,55.9389049 C367.400873,56.7861366 369.609541,57.2653289 371.684949,57.2566837 L371.916098,59.7456841 L374.552105,59.4999128 L374.320544,57.0113241 C378.817261,56.1221013 381.482469,53.1267379 381.117237,49.1935739 C380.823159,46.0302462 378.706622,43.9636266 375.122574,43.3382889 L372.486157,42.8718587 C370.659995,42.5466337 370.026186,42.0501509 369.923361,40.9410925 C369.78969,39.5047508 370.923637,38.3738735 372.670829,38.211261 C374.260906,38.0630572 375.749392,38.3878705 377.795186,39.3726024 L379.53004,36.1145889 C377.887728,35.1537343 375.797925,34.6041453 373.639024,34.591795 L373.430085,32.3456841 L370.783385,32.5922787 L370.989033,34.8054554 C367.161087,35.6259281 364.852884,38.4125711 365.181511,41.94682 C365.29215,43.1398605 365.705916,44.2151614 366.378387,45.1117944 C367.2635,46.335299 368.659444,47.0421488 370.828216,47.4237736 L373.251582,47.8531529 C375.202366,48.1940216 376.174674,48.9741499 376.302587,50.3524452 C376.479445,52.2552173 375.288327,53.3865063 372.831647,53.6153988" id="Fill-29" transform="translate(373.150518, 46.045684) rotate(5.000000) translate(-373.150518, -46.045684) "></path>
                    </g>
                    <path d="M471.650753,2.31737534 L469.819252,5.48087586 C468.293002,4.5373757 466.433752,3.82975059 464.310876,3.82975059 C462.132501,3.82975059 460.592376,4.69000073 460.592376,6.16075097 C460.592376,7.5898762 462.271251,8.02000127 464.602251,8.40850134 L465.698377,8.58887637 C469.167127,9.15775146 471.886628,10.6423767 471.886628,14.0278773 C471.886628,18.315253 468.112627,20.3548783 463.936251,20.3548783 C460.994751,20.3548783 457.83125,19.4946282 455.75,17.8157529 L457.761875,14.6938774 C459.163251,15.8177526 461.452626,16.7890027 463.950126,16.7890027 C466.100752,16.7890027 467.765752,15.9426276 467.765752,14.4441273 C467.765752,13.0982521 466.350502,12.598752 463.644876,12.168627 L462.410001,11.9743769 C458.982876,11.4332518 456.485375,9.92087659 456.485375,6.41050101 C456.485375,2.35900035 460.092876,0.25 464.227626,0.25 C466.947127,0.25 469.208752,0.8605001 471.650753,2.31737534 Z M496.847754,0.583000055 L496.847754,20.0080032 L492.976628,20.0080032 L492.976628,5.34212583 L488.175877,18.1348779 L484.082752,18.1348779 L479.282001,5.45312585 L479.282001,20.0080032 L475.410875,20.0080032 L475.410875,0.583000055 L481.085751,0.583000055 L486.136252,13.6948772 L491.172878,0.583000055 L496.847754,0.583000055 Z M511.624627,0.583000055 L519.186503,20.0080032 L515.051752,20.0080032 L513.359002,15.4847525 L505.075626,15.4847525 L503.382875,20.0080032 L499.34525,20.0080032 L506.907126,0.583000055 L511.624627,0.583000055 Z M509.224251,4.41250068 L506.407626,11.9188769 L512.027002,11.9188769 L509.224251,4.41250068 Z M521.684,0.583000055 L529.898001,0.583000055 C534.532252,0.583000055 537.015878,2.77525041 537.015878,6.49375102 C537.015878,9.68500155 534.795877,11.8633769 531.063502,12.224127 L537.043628,20.0080032 L532.353877,20.0080032 L526.692876,12.279627 L525.555126,12.279627 L525.555126,20.0080032 L521.684,20.0080032 L521.684,0.583000055 Z M529.828626,4.14887564 L525.555126,4.14887564 L525.555126,8.90800142 L529.828626,8.90800142 C531.937627,8.90800142 533.033752,8.13100129 533.033752,6.49375102 C533.033752,4.88425076 531.882127,4.14887564 529.828626,4.14887564 Z M554.664877,0.583000055 L554.664877,4.20437565 L548.643126,4.20437565 L548.643126,20.0080032 L544.772001,20.0080032 L544.772001,4.20437565 L538.75025,4.20437565 L538.75025,0.583000055 L554.664877,0.583000055 Z M464.602251,40.876752 L460.203876,40.876752 L460.203876,48.5080032 L457.068125,48.5080032 L457.068125,29.0830001 L464.602251,29.0830001 C469.083877,29.0830001 471.484253,31.3446254 471.484253,34.979876 C471.484253,38.6151266 469.083877,40.876752 464.602251,40.876752 Z M464.519001,32.0383755 L460.203876,32.0383755 L460.203876,37.9213765 L464.519001,37.9213765 C467.058127,37.9213765 468.223627,36.9778763 468.223627,34.979876 C468.223627,32.9818757 467.058127,32.0383755 464.519001,32.0383755 Z M483.555502,29.0830001 L491.228378,48.5080032 L487.856752,48.5080032 L485.942002,43.5546274 L477.145251,43.5546274 L475.2305,48.5080032 L471.969875,48.5080032 L479.642751,29.0830001 L483.555502,29.0830001 Z M481.543626,32.2048756 L478.296876,40.5853769 L484.790377,40.5853769 L481.543626,32.2048756 Z M508.280753,29.0830001 L500.788252,40.6270019 L500.788252,48.5080032 L497.652501,48.5080032 L497.652501,40.5715019 L490.1045,29.0830001 L493.85075,29.0830001 L499.234251,37.7826265 L504.631627,29.0830001 L508.280753,29.0830001 Z M531.965379,29.0830001 L531.965379,48.5080032 L528.829628,48.5080032 L528.829628,32.5240006 L523.154752,46.6071279 L519.852502,46.6071279 L514.177626,32.6766256 L514.177626,48.5080032 L511.041875,48.5080032 L511.041875,29.0830001 L515.856501,29.0830001 L521.503627,42.9580023 L527.150753,29.0830001 L531.965379,29.0830001 Z M551.404253,45.5665028 L551.404253,48.5080032 L537.237875,48.5080032 L537.237875,29.0830001 L551.223878,29.0830001 L551.223878,32.0245005 L540.373626,32.0245005 L540.373626,37.2553764 L550.849252,37.2553764 L550.849252,40.1968769 L540.373626,40.1968769 L540.373626,45.5665028 L551.404253,45.5665028 Z M572.966003,29.0830001 L572.966003,48.5080032 L570.135503,48.5080032 L559.299126,34.4526259 L559.285251,48.5080032 L556.1495,48.5080032 L556.1495,29.0830001 L558.980001,29.0830001 L569.830252,43.1383774 L569.830252,29.0830001 L572.966003,29.0830001 Z M591.836002,29.0830001 L591.836002,32.0522505 L585.550626,32.0522505 L585.550626,48.5080032 L582.414876,48.5080032 L582.414876,32.0522505 L576.1295,32.0522505 L576.1295,29.0830001 L591.836002,29.0830001 Z M471.123503,59.4283754 L469.874752,61.4125007 C468.293002,60.3441255 466.364377,59.6226254 464.116626,59.6226254 C461.272251,59.6226254 459.246501,60.8991256 459.246501,62.9942509 C459.246501,64.7563762 460.731126,65.6582514 463.644876,66.0190014 L465.351502,66.2271265 C468.639877,66.6295015 471.456503,67.9615018 471.456503,71.3886273 C471.456503,75.259753 467.946127,77.2855033 463.742001,77.2855033 C460.980876,77.2855033 457.956125,76.3281281 456.083,74.7602529 L457.415,72.8177526 C458.760875,73.9832527 461.272251,74.9683779 463.742001,74.9683779 C466.641877,74.9683779 468.917377,73.7890027 468.917377,71.5967524 C468.917377,69.7930021 467.294002,68.9327519 464.269251,68.5581269 L462.465501,68.3361268 C459.260376,67.9476268 456.707375,66.4630015 456.707375,63.146876 C456.707375,59.4006254 460.037376,57.3055 464.130501,57.3055 C467.058127,57.3055 469.292002,58.1657502 471.123503,59.4283754 Z M484.818127,57.291625 C490.645628,57.291625 494.877503,61.4818757 494.877503,67.2955016 C494.877503,73.1091276 490.645628,77.2993783 484.818127,77.2993783 C478.990626,77.2993783 474.75875,73.1091276 474.75875,67.2955016 C474.75875,61.4818757 478.990626,57.291625 484.818127,57.291625 Z M484.818127,59.6365004 C480.544626,59.6365004 477.31175,62.7306259 477.31175,67.2955016 C477.31175,71.8603774 480.544626,74.9545029 484.818127,74.9545029 C489.091627,74.9545029 492.324503,71.8603774 492.324503,67.2955016 C492.324503,62.7306259 489.091627,59.6365004 484.818127,59.6365004 Z M512.873377,74.6908779 L512.873377,77.0080032 L499.303625,77.0080032 L499.303625,57.5830001 L501.745626,57.5830001 L501.745626,74.6908779 L512.873377,74.6908779 Z M531.687878,57.5830001 L531.687878,69.390627 C531.687878,74.6908779 528.108127,77.2855033 523.626502,77.2855033 C519.144876,77.2855033 515.565125,74.6908779 515.565125,69.390627 L515.565125,57.5830001 L518.007126,57.5830001 L518.007126,69.210252 C518.007126,73.1923776 520.379751,74.9406279 523.626502,74.9406279 C526.873252,74.9406279 529.232002,73.1923776 529.232002,69.210252 L529.232002,57.5830001 L531.687878,57.5830001 Z M550.433002,57.5830001 L550.433002,59.9001254 L543.814626,59.9001254 L543.814626,77.0080032 L541.372626,77.0080032 L541.372626,59.9001254 L534.740375,59.9001254 L534.740375,57.5830001 L550.433002,57.5830001 Z M556.191126,57.5830001 L556.191126,77.0080032 L553.749125,77.0080032 L553.749125,57.5830001 L556.191126,57.5830001 Z M570.690502,57.291625 C576.518003,57.291625 580.749878,61.4818757 580.749878,67.2955016 C580.749878,73.1091276 576.518003,77.2993783 570.690502,77.2993783 C564.863001,77.2993783 560.631125,73.1091276 560.631125,67.2955016 C560.631125,61.4818757 564.863001,57.291625 570.690502,57.291625 Z M570.690502,59.6365004 C566.417001,59.6365004 563.184125,62.7306259 563.184125,67.2955016 C563.184125,71.8603774 566.417001,74.9545029 570.690502,74.9545029 C574.964002,74.9545029 578.196878,71.8603774 578.196878,67.2955016 C578.196878,62.7306259 574.964002,59.6365004 570.690502,59.6365004 Z M601.576253,57.5830001 L601.576253,77.0218782 L599.370128,77.0218782 L587.631876,61.7593757 L587.618001,77.0080032 L585.176,77.0080032 L585.176,57.5691251 L587.382126,57.5691251 L599.134253,72.8316276 L599.134253,57.5830001 L601.576253,57.5830001 Z M621.042878,59.4283754 L619.794127,61.4125007 C618.212377,60.3441255 616.283752,59.6226254 614.036001,59.6226254 C611.191626,59.6226254 609.165876,60.8991256 609.165876,62.9942509 C609.165876,64.7563762 610.650501,65.6582514 613.564251,66.0190014 L615.270877,66.2271265 C618.559252,66.6295015 621.375878,67.9615018 621.375878,71.3886273 C621.375878,75.259753 617.865502,77.2855033 613.661376,77.2855033 C610.900251,77.2855033 607.8755,76.3281281 606.002375,74.7602529 L607.334375,72.8177526 C608.68025,73.9832527 611.191626,74.9683779 613.661376,74.9683779 C616.561252,74.9683779 618.836752,73.7890027 618.836752,71.5967524 C618.836752,69.7930021 617.213377,68.9327519 614.188626,68.5581269 L612.384876,68.3361268 C609.179751,67.9476268 606.62675,66.4630015 606.62675,63.146876 C606.62675,59.4006254 609.956751,57.3055 614.049876,57.3055 C616.977502,57.3055 619.211377,58.1657502 621.042878,59.4283754 Z" id="SMART-PAYMENT-SOLUTI" fill="#4A4A4A"></path>
                </g>
            </g>
        </g>
    </g>
</svg>