<?xml version="1.0" encoding="UTF-8"?>
<svg width="419px" height="135px" viewBox="0 0 419 135" version="1.1" xmlns="http://www.w3.org/2000/svg" xmlns:xlink="http://www.w3.org/1999/xlink">
    <!-- Generator: Sketch 52.5 (67469) - http://www.bohemiancoding.com/sketch -->
    <title>logo_vertical</title>
    <desc>Created with Sketch.</desc>
    <g id="Logo" stroke="none" stroke-width="1" fill="none" fill-rule="evenodd">
        <g id="Exibihit-B" transform="translate(-271.000000, -743.000000)">
            <g id="Group">
                <g id="logo_vertical" transform="translate(271.000000, 743.000000)">
                    <g id="full-logo" fill="#FF173D">
                        <path d="M43.7306092,36.7165474 L43.7306092,40.2431167 C43.7306092,49.8836729 35.3620168,56.8810573 23.8323613,56.8810573 C16.7528064,56.8810573 12.5260395,53.8628855 12.5260395,48.8069934 C12.5260395,41.1335352 21.4142247,37.5338656 42.2430988,36.7702368 L43.7306092,36.7165474 Z M29.2184747,0 C11.8071452,0 2.30862503,10.6255507 2.30862503,16.0845264 C2.30862503,18.4782489 3.37308578,20.4916024 5.30560621,21.75413 C6.79477396,22.7254956 8.36805441,22.9823789 8.99247728,22.9823789 L11.1147692,22.965446 L11.1147692,21.4571861 C13.667569,16.9129956 18.7391921,11.717924 28.5770635,11.717924 C38.4903464,11.717924 43.7306092,16.6309196 43.7306092,25.9266244 L43.7306092,26.0934747 C23.2116675,26.6146751 -0.000123639096,29.7687225 -0.000123639096,48.8069934 C-0.000123639096,60.5418502 8.83709668,67.8324615 23.0625021,67.8324615 C31.2993318,67.8324615 38.6929627,64.967924 44.0484143,59.8294328 C44.7088855,64.5491465 47.0884877,66.937087 51.1478579,66.937087 C53.0240269,66.937087 55.9998764,66.1441355 55.9998764,64.0180341 L55.9998764,25.6718062 C55.9998764,9.83714207 45.7377123,0 29.2184747,0 Z" id="Fill-18"></path>
                        <path d="M82.1205099,55.4297272 L117.272144,13.1790293 C119.675533,10.2066246 121,8.56966617 121,6.44497954 L121,5.78472166 C121,2.10809723 118.773288,7.10542736e-15 114.890481,7.10542736e-15 L71.3706416,7.10542736e-15 C66.1055672,7.10542736e-15 65,2.93051644 65,5.38906462 L65,6.18079344 C65,8.63934162 66.1055672,11.5698581 71.3706416,11.5698581 L102.233881,11.5698581 L68.7278563,53.0288272 C66.3244671,56.0012318 65,57.6381903 65,60.027063 L65,61.2148636 C65,64.891488 67.2267116,67 71.1091095,67 L114.548432,67 C119.813097,67 120.917844,64.0690688 120.917844,61.6109354 L120.917844,60.8187918 C120.917844,58.3606584 119.813097,55.4297272 114.548432,55.4297272 L82.1205099,55.4297272 Z" id="Fill-21"></path>
                        <path d="M161.064542,59.4538462 C174.252224,59.4538462 183,49.0692153 183,33.7581225 C183,18.8458098 173.860331,8.06153846 161.326085,8.06153846 C150.489761,8.06153846 142.917242,13.9193478 139,23.1067779 L139,38.0178 C139,50.1339196 149.314504,59.4538462 161.064542,59.4538462 Z M138.629306,87.5494536 C138.629306,90.7622775 137.036164,91.7 134.779856,91.7 L133.850737,91.7 C131.593142,91.7 130,90.7622775 130,87.5494536 L130,2.00779873 C130,1.73963086 131.32719,1.07007627 132.920761,1.07007627 C135.841093,1.07007627 138.496759,2.54283686 138.496759,9.50395549 L138.496759,12.3153927 C144.205733,4.41741671 151.639968,1.42108547e-14 162.128369,1.42108547e-14 C178.85722,1.42108547e-14 192,13.1190313 192,33.3332651 C192,53.4138475 179.121886,66.9342655 161.59775,66.9342655 C150.312349,66.9342655 142.214091,60.9100043 138.629306,54.7520917 L138.629306,87.5494536 Z" id="Fill-23"></path>
                        <path d="M220.992645,59.85 C234.178022,59.85 244,51.843538 244,40.6870759 L244,34.9125 L240.232749,35.043538 C218.301317,35.831038 207,39.6370759 207,49.481038 C207,55.781462 212.247459,59.85 220.992645,59.85 M242.950738,27.7300905 L244.308746,27.7300905 L244.308746,25.4186275 C244.308746,14.2728342 237.789867,8.15621899 226.110994,8.15621899 C215.654549,8.15621899 209.000527,13.4568171 205.468827,20.117151 C205.468827,20.2541786 200.444415,19.7091424 200.444415,14.952263 C200.444415,10.3310936 209.678873,-7.10542736e-15 226.790656,-7.10542736e-15 C243.2219,-7.10542736e-15 253,9.51551563 253,25.1476465 L253,65.9265455 C253,66.198844 251.64243,66.8778336 250.012381,66.8778336 C247.025202,66.8778336 244.443889,65.3832661 244.443889,58.3149236 L244.443889,55.8681896 C239.283895,63.3441015 230.592641,67.83 220.271777,67.83 C206.148489,67.83 198,60.6250691 198,49.750696 C198,34.6627229 213.074552,28.40908 242.950738,27.7300905" id="Fill-25"></path>
                        <path d="M259.00931,2.57417329 C258.872182,2.03194263 260.245689,1.42108547e-14 263.404089,1.42108547e-14 C266.563377,1.42108547e-14 268.212029,1.35535782 270.134051,6.09539027 L290.785809,54.5712199 L308.867834,6.36672441 C310.516043,1.62537905 312.576525,1.42108547e-14 315.461111,1.42108547e-14 C317.933424,1.42108547e-14 320.131035,1.8967132 319.993906,2.30327678 L288.402359,85.8759439 C286.617022,90.616414 284.419855,91.7 282.084227,91.7 C279.611915,91.7 277.277618,89.8032868 277.414303,89.3971609 L286.200044,66.7740052 L259.00931,2.57417329 Z" id="Fill-27"></path>
                        <path d="M370.966015,24.0955213 C383.038754,22.9722077 393.780633,31.8867254 394.904451,43.9637308 C396.027843,56.0398843 387.114832,66.7814373 375.042093,67.9043249 C362.959556,69.0284904 352.219381,60.1156766 351.095563,48.0390972 C349.972171,35.9620918 358.883479,25.2196868 370.966015,24.0955213 M375.598106,73.8776842 C390.985361,72.445717 402.309926,58.8023432 400.87784,43.4058324 C399.445345,28.0080942 385.799418,16.690235 370.411754,18.1222021 C355.009774,19.5553967 343.690118,33.1967249 345.122204,48.5944631 C346.55429,63.9905647 360.196126,75.3104696 375.598106,73.8776842" id="Fill-31"></path>
                        <path d="M329.289448,31.642315 L326,30.5096672 L335.548743,24.2789771 L339.23726,35.0676213 L335.919704,33.9252953 C334.311923,38.8380618 333.661017,44.1493201 334.169407,49.6147632 C336.161631,71.0232449 355.201031,86.823233 376.620074,84.8303941 C383.048292,84.2325043 388.971178,82.0963092 394.0584,78.8197457 L396.158334,85.7542917 C390.549977,89.0271689 384.156963,91.1579822 377.268318,91.7990526 C351.965064,94.1529144 329.553476,75.5559278 327.200763,50.2623322 C326.596814,43.7686943 327.373351,37.4652029 329.289448,31.642315 Z M407.887557,63.4058044 C411.039392,57.113769 412.528983,49.8974823 411.830618,42.3902501 C409.838395,20.9810133 390.795973,5.17800457 369.3943,7.16933319 C361.034989,7.94708783 353.531948,11.3218807 347.60844,16.4207921 L345.417278,9.18498271 C351.988792,4.25226051 359.964252,1.01810039 368.747882,0.200760674 C394.027616,-2.15175678 416.445924,16.4418691 418.799309,41.7381532 C419.60162,50.363889 417.966769,58.6546873 414.461176,65.9291801 L417.295438,67.0171513 L407.535063,72.9107995 L404.225312,62 L407.887557,63.4058044 Z" id="Combined-Shape"></path>
                        <path d="M372.831647,53.6153988 C370.680149,53.8158856 368.902521,53.3070526 366.810661,52.4478822 L365.52659,55.9389049 C367.400873,56.7861366 369.609541,57.2653289 371.684949,57.2566837 L371.916098,59.7456841 L374.552105,59.4999128 L374.320544,57.0113241 C378.817261,56.1221013 381.482469,53.1267379 381.117237,49.1935739 C380.823159,46.0302462 378.706622,43.9636266 375.122574,43.3382889 L372.486157,42.8718587 C370.659995,42.5466337 370.026186,42.0501509 369.923361,40.9410925 C369.78969,39.5047508 370.923637,38.3738735 372.670829,38.211261 C374.260906,38.0630572 375.749392,38.3878705 377.795186,39.3726024 L379.53004,36.1145889 C377.887728,35.1537343 375.797925,34.6041453 373.639024,34.591795 L373.430085,32.3456841 L370.783385,32.5922787 L370.989033,34.8054554 C367.161087,35.6259281 364.852884,38.4125711 365.181511,41.94682 C365.29215,43.1398605 365.705916,44.2151614 366.378387,45.1117944 C367.2635,46.335299 368.659444,47.0421488 370.828216,47.4237736 L373.251582,47.8531529 C375.202366,48.1940216 376.174674,48.9741499 376.302587,50.3524452 C376.479445,52.2552173 375.288327,53.3865063 372.831647,53.6153988" id="Fill-29" transform="translate(373.150518, 46.045684) rotate(5.000000) translate(-373.150518, -46.045684) "></path>
                    </g>
                    <path d="M42.7520023,118.788 L41.168002,121.524001 C39.8480018,120.708001 38.2400015,120.096001 36.4040012,120.096001 C34.5200009,120.096001 33.1880007,120.840001 33.1880007,122.112001 C33.1880007,123.348001 34.6400009,123.720001 36.6560013,124.056001 L37.6040014,124.212001 C40.6040019,124.704001 42.9560023,125.988001 42.9560023,128.916002 C42.9560023,132.624003 39.6920018,134.388003 36.0800012,134.388003 C33.5360007,134.388003 30.8000003,133.644003 29,132.192002 L30.7400003,129.492002 C31.9520005,130.464002 33.9320008,131.304002 36.0920012,131.304002 C37.9520015,131.304002 39.3920017,130.572002 39.3920017,129.276002 C39.3920017,128.112002 38.1680015,127.680002 35.8280011,127.308002 L34.7600009,127.140002 C31.7960005,126.672002 29.6360001,125.364001 29.6360001,122.328001 C29.6360001,118.824 32.7560006,117 36.3320012,117 C38.6840016,117 40.6400019,117.528 42.7520023,118.788 Z M64.5440032,117.288 L64.5440032,134.088003 L61.1960026,134.088003 L61.1960026,121.404001 L57.0440019,132.468003 L53.5040014,132.468003 L49.3520007,121.500001 L49.3520007,134.088003 L46.0040001,134.088003 L46.0040001,117.288 L50.9120009,117.288 L55.2800016,128.628002 L59.6360024,117.288 L64.5440032,117.288 Z M77.3240016,117.288 L83.8640027,134.088003 L80.2880021,134.088003 L78.8240018,130.176002 L71.6600007,130.176002 L70.1960004,134.088003 L66.7039999,134.088003 L73.2440009,117.288 L77.3240016,117.288 Z M75.2480013,120.600001 L72.8120009,127.092002 L77.6720017,127.092002 L75.2480013,120.600001 Z M86.0240001,117.288 L93.1280013,117.288 C97.1360019,117.288 99.2840023,119.184 99.2840023,122.400001 C99.2840023,125.160001 97.364002,127.044002 94.1360015,127.356002 L99.3080023,134.088003 L95.2520016,134.088003 L90.3560008,127.404002 L89.3720007,127.404002 L89.3720007,134.088003 L86.0240001,134.088003 L86.0240001,117.288 Z M93.0680013,120.372001 L89.3720007,120.372001 L89.3720007,124.488001 L93.0680013,124.488001 C94.8920016,124.488001 95.8400017,123.816001 95.8400017,122.400001 C95.8400017,121.008001 94.8440016,120.372001 93.0680013,120.372001 Z M114.548002,117.288 L114.548002,120.420001 L109.340001,120.420001 L109.340001,134.088003 L105.992001,134.088003 L105.992001,120.420001 L100.784,120.420001 L100.784,117.288 L114.548002,117.288 Z M129.344001,127.488002 L125.540001,127.488002 L125.540001,134.088003 L122.828,134.088003 L122.828,117.288 L129.344001,117.288 C133.220002,117.288 135.296002,119.244 135.296002,122.388001 C135.296002,125.532001 133.220002,127.488002 129.344001,127.488002 Z M129.272001,119.844 L125.540001,119.844 L125.540001,124.932001 L129.272001,124.932001 C131.468002,124.932001 132.476002,124.116001 132.476002,122.388001 C132.476002,120.660001 131.468002,119.844 129.272001,119.844 Z M145.736002,117.288 L152.372003,134.088003 L149.456002,134.088003 L147.800002,129.804002 L140.192001,129.804002 L138.536,134.088003 L135.716,134.088003 L142.352001,117.288 L145.736002,117.288 Z M143.996001,119.988 L141.188001,127.236002 L146.804002,127.236002 L143.996001,119.988 Z M167.120002,117.288 L160.640001,127.272002 L160.640001,134.088003 L157.928001,134.088003 L157.928001,127.224002 L151.4,117.288 L154.64,117.288 L159.296001,124.812001 L163.964002,117.288 L167.120002,117.288 Z M187.604003,117.288 L187.604003,134.088003 L184.892003,134.088003 L184.892003,120.264001 L179.984002,132.444003 L177.128001,132.444003 L172.220001,120.396001 L172.220001,134.088003 L169.508,134.088003 L169.508,117.288 L173.672001,117.288 L178.556002,129.288002 L183.440002,117.288 L187.604003,117.288 Z M204.416002,131.544002 L204.416002,134.088003 L192.164,134.088003 L192.164,117.288 L204.260002,117.288 L204.260002,119.832 L194.876001,119.832 L194.876001,124.356001 L203.936002,124.356001 L203.936002,126.900002 L194.876001,126.900002 L194.876001,131.544002 L204.416002,131.544002 Z M223.064003,117.288 L223.064003,134.088003 L220.616002,134.088003 L211.244001,121.932001 L211.232001,134.088003 L208.52,134.088003 L208.52,117.288 L210.968001,117.288 L220.352002,129.444002 L220.352002,117.288 L223.064003,117.288 Z M239.384002,117.288 L239.384002,119.856 L233.948001,119.856 L233.948001,134.088003 L231.236001,134.088003 L231.236001,119.856 L225.8,119.856 L225.8,117.288 L239.384002,117.288 Z M260.216002,118.884 L259.136002,120.600001 C257.768002,119.676 256.100002,119.052 254.156001,119.052 C251.696001,119.052 249.944,120.156001 249.944,121.968001 C249.944,123.492001 251.228001,124.272001 253.748001,124.584001 L255.224001,124.764001 C258.068002,125.112001 260.504002,126.264002 260.504002,129.228002 C260.504002,132.576003 257.468002,134.328003 253.832001,134.328003 C251.444001,134.328003 248.828,133.500003 247.208,132.144002 L248.36,130.464002 C249.524,131.472002 251.696001,132.324003 253.832001,132.324003 C256.340002,132.324003 258.308002,131.304002 258.308002,129.408002 C258.308002,127.848002 256.904002,127.104002 254.288001,126.780002 L252.728001,126.588002 C249.956,126.252002 247.748,124.968001 247.748,122.100001 C247.748,118.86 250.628001,117.048 254.168001,117.048 C256.700002,117.048 258.632002,117.792 260.216002,118.884 Z M272.060001,117.036 C277.100002,117.036 280.760003,120.660001 280.760003,125.688001 C280.760003,130.716002 277.100002,134.340003 272.060001,134.340003 C267.020001,134.340003 263.36,130.716002 263.36,125.688001 C263.36,120.660001 267.020001,117.036 272.060001,117.036 Z M272.060001,119.064 C268.364001,119.064 265.568,121.740001 265.568,125.688001 C265.568,129.636002 268.364001,132.312003 272.060001,132.312003 C275.756002,132.312003 278.552003,129.636002 278.552003,125.688001 C278.552003,121.740001 275.756002,119.064 272.060001,119.064 Z M296.324002,132.084002 L296.324002,134.088003 L284.588,134.088003 L284.588,117.288 L286.700001,117.288 L286.700001,132.084002 L296.324002,132.084002 Z M312.596002,117.288 L312.596002,127.500002 C312.596002,132.084002 309.500002,134.328003 305.624001,134.328003 C301.748001,134.328003 298.652,132.084002 298.652,127.500002 L298.652,117.288 L300.764001,117.288 L300.764001,127.344002 C300.764001,130.788002 302.816001,132.300003 305.624001,132.300003 C308.432002,132.300003 310.472002,130.788002 310.472002,127.344002 L310.472002,117.288 L312.596002,117.288 Z M328.808002,117.288 L328.808002,119.292 L323.084001,119.292 L323.084001,134.088003 L320.972001,134.088003 L320.972001,119.292 L315.236,119.292 L315.236,117.288 L328.808002,117.288 Z M333.788001,117.288 L333.788001,134.088003 L331.676,134.088003 L331.676,117.288 L333.788001,117.288 Z M346.328001,117.036 C351.368002,117.036 355.028003,120.660001 355.028003,125.688001 C355.028003,130.716002 351.368002,134.340003 346.328001,134.340003 C341.288001,134.340003 337.628,130.716002 337.628,125.688001 C337.628,120.660001 341.288001,117.036 346.328001,117.036 Z M346.328001,119.064 C342.632001,119.064 339.836,121.740001 339.836,125.688001 C339.836,129.636002 342.632001,132.312003 346.328001,132.312003 C350.024002,132.312003 352.820003,129.636002 352.820003,125.688001 C352.820003,121.740001 350.024002,119.064 346.328001,119.064 Z M373.040003,117.288 L373.040003,134.100003 L371.132002,134.100003 L360.980001,120.900001 L360.968001,134.088003 L358.856,134.088003 L358.856,117.276 L360.764001,117.276 L370.928002,130.476002 L370.928002,117.288 L373.040003,117.288 Z M389.876002,118.884 L388.796002,120.600001 C387.428002,119.676 385.760002,119.052 383.816001,119.052 C381.356001,119.052 379.604,120.156001 379.604,121.968001 C379.604,123.492001 380.888001,124.272001 383.408001,124.584001 L384.884001,124.764001 C387.728002,125.112001 390.164002,126.264002 390.164002,129.228002 C390.164002,132.576003 387.128002,134.328003 383.492001,134.328003 C381.104001,134.328003 378.488,133.500003 376.868,132.144002 L378.02,130.464002 C379.184,131.472002 381.356001,132.324003 383.492001,132.324003 C386.000002,132.324003 387.968002,131.304002 387.968002,129.408002 C387.968002,127.848002 386.564002,127.104002 383.948001,126.780002 L382.388001,126.588002 C379.616,126.252002 377.408,124.968001 377.408,122.100001 C377.408,118.86 380.288001,117.048 383.828001,117.048 C386.360002,117.048 388.292002,117.792 389.876002,118.884 Z" id="SMART-PAYMENT-SOLUTI" fill="#4A4A4A"></path>
                </g>
            </g>
        </g>
    </g>
</svg>