<?xml version="1.0" encoding="UTF-8"?>
<svg width="16px" height="16px" viewBox="0 0 16 16" version="1.1" xmlns="http://www.w3.org/2000/svg" xmlns:xlink="http://www.w3.org/1999/xlink">
    <!-- Generator: Sketch 52.2 (67145) - http://www.bohemiancoding.com/sketch -->
    <title>icon / arrow-right</title>
    <desc>Created with Sketch.</desc>
    <defs>
        <path d="M16.5857864,11 L11.2928932,5.70710678 C10.9023689,5.31658249 10.9023689,4.68341751 11.2928932,4.29289322 C11.6834175,3.90236893 12.3165825,3.90236893 12.7071068,4.29289322 L19.7071068,11.2928932 C20.0976311,11.6834175 20.0976311,12.3165825 19.7071068,12.7071068 L12.7071068,19.7071068 C12.3165825,20.0976311 11.6834175,20.0976311 11.2928932,19.7071068 C10.9023689,19.3165825 10.9023689,18.6834175 11.2928932,18.2928932 L16.5857864,13 L5,13 C4.44771525,13 4,12.5522847 4,12 C4,11.4477153 4.44771525,11 5,11 L16.5857864,11 Z" id="path-1"></path>
    </defs>
    <g id="1.1" stroke="none" stroke-width="1" fill="none" fill-rule="evenodd">
        <g id="Landing" transform="translate(-999.000000, -359.000000)">
            <g id="hero-2" transform="translate(0.000000, 5.000000)">
                <g id="input" transform="translate(402.000000, 322.000000)">
                    <g id="icon-/-arrow-right" transform="translate(593.000000, 28.000000)">
                        <mask id="mask-2" fill="white">
                            <use xlink:href="#path-1"></use>
                        </mask>
                        <use id="Mask" fill="#000000" fill-rule="nonzero" xlink:href="#path-1"></use>
                        <g id="color-/-AZPay-/-red" mask="url(#mask-2)" fill="#FF173D" fill-rule="evenodd">
                            <rect id="Shape" x="0" y="0" width="24" height="24"></rect>
                        </g>
                    </g>
                </g>
            </g>
        </g>
    </g>
</svg>