<?xml version="1.0" encoding="UTF-8"?>
<svg width="16px" height="16px" viewBox="0 0 16 16" version="1.1" xmlns="http://www.w3.org/2000/svg" xmlns:xlink="http://www.w3.org/1999/xlink">
    <!-- Generator: Sketch 52.4 (67378) - http://www.bohemiancoding.com/sketch -->
    <title>arrow-right</title>
    <desc>Created with Sketch.</desc>
    <defs>
        <path d="M12.5857864,7 L7.2928932,1.70710678 C6.9023689,1.31658249 6.9023689,0.68341751 7.2928932,0.29289322 C7.6834175,-0.09763107 8.3165825,-0.09763107 8.7071068,0.29289322 L15.7071068,7.2928932 C16.0976311,7.6834175 16.0976311,8.3165825 15.7071068,8.7071068 L8.7071068,15.7071068 C8.3165825,16.0976311 7.6834175,16.0976311 7.2928932,15.7071068 C6.9023689,15.3165825 6.9023689,14.6834175 7.2928932,14.2928932 L12.5857864,9 L1,9 C0.44771525,9 0,8.5522847 0,8 C0,7.4477153 0.44771525,7 1,7 L12.5857864,7 Z" id="path-1"></path>
    </defs>
    <g id="Page-1" stroke="none" stroke-width="1" fill="none" fill-rule="evenodd">
        <g id="arrow-right">
            <g id="Mask" fill="#000000">
                <path d="M12.5857864,7 L7.2928932,1.70710678 C6.9023689,1.31658249 6.9023689,0.68341751 7.2928932,0.29289322 C7.6834175,-0.09763107 8.3165825,-0.09763107 8.7071068,0.29289322 L15.7071068,7.2928932 C16.0976311,7.6834175 16.0976311,8.3165825 15.7071068,8.7071068 L8.7071068,15.7071068 C8.3165825,16.0976311 7.6834175,16.0976311 7.2928932,15.7071068 C6.9023689,15.3165825 6.9023689,14.6834175 7.2928932,14.2928932 L12.5857864,9 L1,9 C0.44771525,9 0,8.5522847 0,8 C0,7.4477153 0.44771525,7 1,7 L12.5857864,7 Z" id="path-1"></path>
            </g>
            <g id="color-/-AZPay-/-red-Clipped">
                <mask id="mask-2" fill="white">
                    <use xlink:href="#path-1"></use>
                </mask>
                <g id="path-1"></g>
                <g id="color-/-AZPay-/-red" mask="url(#mask-2)" fill="#FFFFFF">
                    <g transform="translate(-4.000000, -4.000000)" id="Shape">
                        <rect x="0" y="0" width="24" height="24"></rect>
                    </g>
                </g>
            </g>
        </g>
    </g>
</svg>