<?xml version="1.0" encoding="UTF-8"?>
<svg width="18px" height="13px" viewBox="0 0 18 13" version="1.1" xmlns="http://www.w3.org/2000/svg" xmlns:xlink="http://www.w3.org/1999/xlink">
    <!-- Generator: Sketch 52.4 (67378) - http://www.bohemiancoding.com/sketch -->
    <title>check</title>
    <desc>Created with Sketch.</desc>
    <defs>
        <path d="M17.7,1.7 L6.7,12.7 C6.5,12.9 6.3,13 6,13 C5.7,13 5.5,12.9 5.3,12.7 L0.3,7.7 C-0.1,7.3 -0.1,6.7 0.3,6.3 C0.7,5.9 1.3,5.9 1.7,6.3 L6,10.6 L16.3,0.3 C16.7,-0.1 17.3,-0.1 17.7,0.3 C18.1,0.7 18.1,1.3 17.7,1.7 Z" id="path-1"></path>
    </defs>
    <g id="Page-1" stroke="none" stroke-width="1" fill="none" fill-rule="evenodd">
        <g id="check">
            <g id="Mask" fill="#000000">
                <path d="M17.7,1.7 L6.7,12.7 C6.5,12.9 6.3,13 6,13 C5.7,13 5.5,12.9 5.3,12.7 L0.3,7.7 C-0.1,7.3 -0.1,6.7 0.3,6.3 C0.7,5.9 1.3,5.9 1.7,6.3 L6,10.6 L16.3,0.3 C16.7,-0.1 17.3,-0.1 17.7,0.3 C18.1,0.7 18.1,1.3 17.7,1.7 Z" id="path-1"></path>
            </g>
            <g id="color-/-AZPay-/-blue-Clipped">
                <mask id="mask-2" fill="white">
                    <use xlink:href="#path-1"></use>
                </mask>
                <g id="path-1"></g>
                <g id="color-/-AZPay-/-blue" mask="url(#mask-2)" fill="#FFFFFF">
                    <g transform="translate(-3.000000, -6.000000)" id="Shape">
                        <rect x="0" y="0" width="24" height="24"></rect>
                    </g>
                </g>
            </g>
        </g>
    </g>
</svg>