<?xml version="1.0" encoding="UTF-8"?>
<svg width="23px" height="27px" viewBox="0 0 23 27" version="1.1" xmlns="http://www.w3.org/2000/svg" xmlns:xlink="http://www.w3.org/1999/xlink">
    <!-- Generator: Sketch 52.2 (67145) - http://www.bohemiancoding.com/sketch -->
    <title>Mask</title>
    <desc>Created with Sketch.</desc>
    <defs>
        <linearGradient x1="-1.11022302e-14%" y1="50%" x2="100%" y2="50%" id="linearGradient-1">
            <stop stop-color="#FF416C" offset="0%"></stop>
            <stop stop-color="#FF4B2B" offset="100%"></stop>
        </linearGradient>
        <path d="M9.2724739,19.7427897 C9.2724739,23.6648938 12.3455384,26.8444499 16.1362809,26.8444499 C19.9270234,26.8444499 23,23.6649847 23,19.7427897 C23,15.8205946 19.9270234,12.6412203 16.1362809,12.6412203 C12.3454505,12.6412203 9.2724739,15.8206855 9.2724739,19.7427897 Z M13.4552683,16.9693258 C13.6251984,16.793507 13.8609391,16.6923248 14.1012488,16.6923248 C14.3415585,16.6923248 14.5772992,16.793507 14.7481959,16.9693258 C14.9182139,17.1452355 15.0150407,17.3891454 15.0150407,17.6377826 C15.0150407,17.8864198 14.9182139,18.1303297 14.7481959,18.3062394 C14.5772992,18.4820581 14.342525,18.5832403 14.1012488,18.5832403 C13.8609391,18.5832403 13.6251984,18.4820581 13.4552683,18.3062394 C13.2852503,18.1303297 13.187457,17.8864198 13.187457,17.6377826 C13.187457,17.3891454 13.2852503,17.1452355 13.4552683,16.9693258 Z M18.8170299,22.5159808 C18.6470119,22.6918905 18.4112712,22.7930727 18.1709615,22.7930727 C17.9306518,22.7930727 17.6949111,22.6918905 17.5249809,22.5159808 C17.3540843,22.340162 17.2571696,22.0971612 17.2571696,21.8476149 C17.2571696,21.5988868 17.3540843,21.3550678 17.5249809,21.1791581 C17.6949111,21.0032485 17.9306518,20.9021572 18.1709615,20.9021572 C18.4112712,20.9021572 18.6470119,21.0032485 18.8170299,21.1791581 C18.9870479,21.3550678 19.0847533,21.5988868 19.0847533,21.8476149 C19.0847533,22.0972521 18.9870479,22.340253 18.8170299,22.5159808 Z M18.8047288,16.9817804 C19.161547,17.3509634 19.161547,17.9496018 18.8047288,18.3187849 L14.7600576,22.5036171 C14.5816046,22.6881632 14.3477969,22.7805272 14.1139013,22.7805272 C13.8800058,22.7805272 13.6461981,22.6882541 13.4677451,22.5036171 C13.1109269,22.1344341 13.1109269,21.5357957 13.4677451,21.1666126 L17.5124163,16.9817804 C17.8694102,16.6126882 18.4478228,16.6126882 18.8047288,16.9817804 Z M8.24143608,19.7489756 C8.24143608,22.7218947 9.6433158,25.3619945 11.7987224,27 L0.913703996,27 C0.409097587,27 0,26.5767258 0,26.0546332 L0,0.945366819 C0,0.423274152 0.409097587,0 0.913703996,0 L16.4923615,0 C16.9969679,0 17.4060655,0.423274152 17.4060655,0.945366819 L17.4060655,10.7700363 C17.2493151,10.761309 17.0915103,10.7565817 16.9326511,10.7565817 C12.1403399,10.7565817 8.24143608,14.7905953 8.24143608,19.7489756 Z M5.16714152,5.021926 C4.66253511,5.021926 4.25343752,5.44520015 4.25343752,5.96729282 C4.25343752,6.48938549 4.66253511,6.91265964 5.16714152,6.91265964 L11.6387209,6.91265964 C12.1433273,6.91265964 12.5524249,6.48938549 12.5524249,5.96729282 C12.5524249,5.44520015 12.1433273,5.021926 11.6387209,5.021926 L5.16714152,5.021926 Z M5.16714152,10.0437611 C4.66253511,10.0437611 4.25334965,10.4670352 4.25343752,10.9891279 C4.25343752,11.5112206 4.66253511,11.9344947 5.16714152,11.9344947 L11.6387209,11.9344947 C12.1433273,11.9344947 12.5524249,11.5112206 12.5524249,10.9891279 C12.5524249,10.4670352 12.1433273,10.0437611 11.6387209,10.0437611 L5.16714152,10.0437611 Z M6.78499243,16.9563298 C7.28959884,16.9563298 7.69869643,16.5330557 7.69869643,16.010963 C7.69869643,15.4888703 7.28959884,15.0655962 6.78499243,15.0655962 L5.16714152,15.0655962 C4.66253511,15.0655962 4.25343752,15.4888703 4.25343752,16.010963 C4.25343752,16.5330557 4.66253511,16.9563298 5.16714152,16.9563298 L6.78499243,16.9563298 Z" id="path-2"></path>
    </defs>
    <g id="Symbols" stroke="none" stroke-width="1" fill="none" fill-rule="evenodd">
        <g id="tax" transform="translate(-15.000000, -11.000000)">
            <g id="Color/Grayscale/10" transform="translate(15.000000, 11.000000)">
                <mask id="mask-3" fill="white">
                    <use xlink:href="#path-2"></use>
                </mask>
                <use id="Mask" fill="url(#linearGradient-1)" fill-rule="nonzero" xlink:href="#path-2"></use>
            </g>
        </g>
    </g>
</svg>