<?xml version="1.0" encoding="UTF-8"?>
<svg width="24px" height="30px" viewBox="0 0 24 30" version="1.1" xmlns="http://www.w3.org/2000/svg" xmlns:xlink="http://www.w3.org/1999/xlink">
    <!-- Generator: Sketch 52.2 (67145) - http://www.bohemiancoding.com/sketch -->
    <title>Mask</title>
    <desc>Created with Sketch.</desc>
    <defs>
        <linearGradient x1="-1.11022302e-14%" y1="50%" x2="100%" y2="50%" id="linearGradient-1">
            <stop stop-color="#FF416C" offset="0%"></stop>
            <stop stop-color="#FF4B2B" offset="100%"></stop>
        </linearGradient>
        <path d="M18.6771547,17.7464636 L15.4764002,15.6637664 C15.8872038,14.4888789 15.794502,13.17659 15.1992666,12.0629032 L17.824597,9.70990317 C19.2668579,10.6125378 21.1888506,10.4363609 22.4425679,9.17852252 C23.9019487,7.71450697 23.9019487,5.34065674 22.4425679,3.87656619 C20.9831124,2.41247563 18.616749,2.41247563 17.1575177,3.87656619 C16.0078657,5.02992844 15.7645982,6.74714669 16.4257714,8.14021149 L13.800142,10.4935865 C12.5432848,9.62095222 10.9399919,9.4684006 9.56217375,10.0377317 L6.53441279,5.85771224 C7.62051924,4.42714704 7.51338883,2.37610025 6.21062926,1.06898636 C4.78989915,-0.356328786 2.48640852,-0.356328786 1.06560365,1.06898636 C-0.355201217,2.4943765 -0.355201217,4.80537606 1.06560365,6.2306912 C2.0857722,7.25415208 3.5606282,7.54253014 4.8372967,7.0965754 L7.86543146,11.2769698 C6.37009134,13.0365635 6.449785,15.6816916 8.10780185,17.3449843 C8.13964941,17.3769346 8.17239409,17.4068599 8.20521352,17.4377603 L5.27150005,22.6033652 C4.05217211,22.3140871 2.71629407,22.6456656 1.76535285,23.5998257 C0.305972066,25.0639913 0.305972066,27.4379915 1.76535285,28.9019321 C3.22473363,30.3660226 5.59102228,30.3660226 7.0503283,28.9019321 C8.49445814,27.4532917 8.50873721,25.1141668 7.0946607,23.6467012 L10.0281499,18.4816214 C11.5012864,18.9059759 13.1483884,18.5549721 14.3322803,17.4291352 L17.5361,19.5134073 C17.3315579,20.4663675 17.5974775,21.5007784 18.3357279,22.2413363 C19.4921831,23.4015236 21.3667783,23.4015236 22.5231587,22.2413363 C23.6795391,21.081374 23.6795391,19.200579 22.5231587,18.0404667 C21.474731,16.9890305 19.8357779,16.8908545 18.6771547,17.7464636 Z M3.03140549,25.4182201 C2.96030918,25.4990709 2.8933994,25.5754217 2.82776053,25.6411974 C2.7459736,25.7231733 2.63420811,25.8230744 2.49552918,25.8660498 C2.32133947,25.9199754 2.14333703,25.8724999 2.00690089,25.7356234 C1.65014841,25.3777946 1.78658456,24.7006874 2.32432986,24.1614317 C2.86222467,23.621801 3.53685467,23.4848495 3.89375667,23.8429033 C4.03011805,23.9795548 4.07744083,24.1582817 4.02361397,24.3331085 C3.98085152,24.472235 3.88127183,24.5846612 3.79955966,24.6664121 C3.73392079,24.7321128 3.65781559,24.7992385 3.57715006,24.8705642 C3.48407444,24.9527651 3.38763465,25.037741 3.29269005,25.132842 C3.1978202,25.228018 3.11326718,25.3247691 3.03140549,25.4182201 Z M17.7164947,4.43779715 C18.25424,3.89831642 18.9290195,3.76128996 19.285772,4.11926877 C19.4220586,4.25599522 19.4695309,4.43464712 19.4156293,4.60954898 C19.3728669,4.74875046 19.2732124,4.86110165 19.191575,4.94300252 C19.1260857,5.00862822 19.0499805,5.07575393 18.9692402,5.14700469 C18.8760898,5.22928056 18.7797995,5.31418146 18.6847802,5.40935747 C18.5897608,5.50468349 18.505133,5.60150952 18.4231218,5.69496051 C18.3522498,5.77566137 18.2851157,5.85223718 18.2197759,5.91793788 C18.1380637,5.99991375 18.0260739,6.09981481 17.887395,6.14279027 C17.7130558,6.19671584 17.5351281,6.14924034 17.3987667,6.01236388 C17.0422385,5.65438508 17.1786747,4.97720288 17.7164947,4.43779715 Z M2.29823878,2.83908017 C2.22886194,2.917831 2.16374639,2.99223179 2.10027554,3.05620747 C2.02080616,3.13593332 1.91180677,3.23305935 1.77664154,3.2751348 C1.60701217,3.32748535 1.43371958,3.28135986 1.30087189,3.14830845 C0.953539115,2.79977975 1.08661108,2.14059774 1.61022683,1.61544216 C2.13376781,1.09013658 2.79053028,0.956785166 3.13801258,1.30531387 C3.27078551,1.43851528 3.31706165,1.61244213 3.2645057,1.78254394 C3.22256561,1.91807038 3.12590154,2.02742154 3.0463574,2.10699739 C2.98251276,2.17104807 2.9083513,2.23652376 2.8298538,2.3055995 C2.73917049,2.38555035 2.64527252,2.46835123 2.5529445,2.56105221 C2.46046696,2.6538282 2.37785768,2.7481792 2.29823878,2.83908017 Z M8.77577825,11.6821241 C9.41818689,11.0375673 10.2239451,10.8740655 10.6502239,11.3016451 C10.8131997,11.4652218 10.8697927,11.6784491 10.8055743,11.8874013 C10.7541397,12.0537531 10.6353468,12.1877795 10.5377109,12.2858055 C10.4594376,12.3643314 10.3683805,12.4442072 10.2720902,12.5294081 C10.1609976,12.6277342 10.0458679,12.7290602 9.93238294,12.8428365 C9.81889797,12.9567627 9.71782309,13.0721889 9.62003762,13.1838651 C9.5351108,13.2803911 9.45519286,13.3717421 9.37699439,13.4501179 C9.27935845,13.548369 9.14576317,13.6673202 8.97994653,13.7187708 C8.771816,13.7831964 8.55919989,13.7265708 8.39599984,13.5629941 C7.97002004,13.1350396 8.13336961,12.326681 8.77577825,11.6821241 Z M19.1780435,19.6579339 C19.1131523,19.7228846 19.0243379,19.8021604 18.9145909,19.8361358 C18.7765849,19.8788112 18.6358127,19.8412358 18.5274861,19.7328597 C18.2446708,19.4492816 18.3526983,18.9128759 18.7790519,18.4853714 C19.204957,18.0578669 19.7396371,17.9494157 20.0224524,18.2332187 C20.1303304,18.3414449 20.1678597,18.4829714 20.1253215,18.6216479 C20.0914555,18.731974 20.0124346,18.82085 19.9477676,18.8857257 C19.8958845,18.9376262 19.8356284,18.9908768 19.771709,19.0473524 C19.6981456,19.1123031 19.6215918,19.1798038 19.5464585,19.2551796 C19.4711756,19.3306304 19.4038921,19.4071312 19.3392998,19.481382 C19.2828564,19.5455077 19.2297771,19.6058833 19.1780435,19.6579339 Z" id="path-2"></path>
    </defs>
    <g id="Symbols" stroke="none" stroke-width="1" fill="none" fill-rule="evenodd">
        <g id="Shape" transform="translate(-12.000000, -9.000000)">
            <g id="Color/Grayscale/10" transform="translate(12.000000, 9.000000)">
                <mask id="mask-3" fill="white">
                    <use xlink:href="#path-2"></use>
                </mask>
                <use id="Mask" fill="url(#linearGradient-1)" fill-rule="nonzero" xlink:href="#path-2"></use>
            </g>
        </g>
    </g>
</svg>