<?xml version="1.0" encoding="UTF-8"?>
<svg width="417px" height="134px" viewBox="0 0 417 134" version="1.1" xmlns="http://www.w3.org/2000/svg" xmlns:xlink="http://www.w3.org/1999/xlink">
    <!-- Generator: Sketch 52.2 (67145) - http://www.bohemiancoding.com/sketch -->
    <title>logo</title>
    <desc>Created with Sketch.</desc>
    <g id="Logo" stroke="none" stroke-width="1" fill="none" fill-rule="evenodd">
        <g id="logo">
            <g id="full-logo" fill="#FF173D">
                <path d="M43.4965226,37.5166358 L43.4965226,41.0432052 C43.4965226,50.6837613 35.1727265,57.6811457 23.7047882,57.6811457 C16.6631295,57.6811457 12.4589881,54.6629739 12.4589881,49.6070818 C12.4589881,41.9336237 21.2995956,38.3339541 42.0169747,37.5703252 L43.4965226,37.5166358 Z M29.0620702,0.800088436 C11.743942,0.800088436 2.29626651,11.4256391 2.29626651,16.8846149 C2.29626651,19.2783373 3.3550293,21.2916909 5.27720512,22.5542184 C6.75840149,23.525584 8.32326032,23.7824673 8.94434072,23.7824673 L11.0552722,23.7655345 L11.0552722,22.2572746 C13.5944071,17.713084 18.6388823,12.5180124 28.4240925,12.5180124 C38.2843104,12.5180124 43.4965226,17.431008 43.4965226,26.7267129 L43.4965226,26.8935631 C23.0874169,27.4147635 -0.000123639096,30.5688109 -0.000123639096,49.6070818 C-0.000123639096,61.3419387 8.78979185,68.6325499 22.93905,68.6325499 C31.1317887,68.6325499 38.4858421,65.7680124 43.8126265,60.6295213 C44.4695622,65.3492349 46.8364267,67.7371754 50.8740674,67.7371754 C52.7401935,67.7371754 55.7001135,66.9442239 55.7001135,64.8181226 L55.7001135,26.4718946 C55.7001135,10.6372305 45.4928818,0.800088436 29.0620702,0.800088436 Z" id="Fill-18"></path>
                <path d="M114.612536,55.7041771 L82.0101423,55.7041771 L116.350901,13.6306639 C118.767221,10.6707244 120.098814,9.04063084 120.098814,6.9248544 L120.098814,6.26736542 C120.098814,2.60615947 117.860122,0.506902863 113.956424,0.506902863 L71.2024367,0.506902863 C65.9090349,0.506902863 64.7975194,3.42512974 64.7975194,5.87336762 L64.7975194,6.66177621 C64.7975194,9.1100141 65.9090349,12.028241 71.2024367,12.028241 L102.231729,12.028241 L68.5454325,53.3133456 C66.1291125,56.273285 64.7975194,57.9033786 64.7975194,60.2822333 L64.7975194,61.4650526 C64.7975194,65.1262586 67.0362113,67.2259282 70.9394976,67.2259282 L114.612536,67.2259282 C119.905525,67.2259282 121.016216,64.3072883 121.016216,61.8594634 L121.016216,61.0706418 C121.016216,58.622817 119.905525,55.7041771 114.612536,55.7041771" id="Fill-21"></path>
                <path d="M160.314161,59.4493863 C173.198179,59.4493863 181.744526,49.4796727 181.744526,34.7803335 C181.744526,20.4638412 172.81531,10.1104546 160.569682,10.1104546 C149.982879,10.1104546 142.584727,15.7342156 138.757685,24.5545626 L138.757685,38.8698159 C138.757685,50.5018368 148.834683,59.4493863 160.314161,59.4493863 Z M138.885033,86.4200637 C138.885033,89.4877949 137.354381,90.3831694 135.186576,90.3831694 L134.293901,90.3831694 C132.12486,90.3831694 130.594208,89.4877949 130.594208,86.4200637 L130.594208,4.74151189 C130.594208,4.48545463 131.869339,3.84613744 133.400403,3.84613744 C136.206186,3.84613744 138.757685,5.25238744 138.757685,11.8991385 L138.757685,14.5836099 C144.242727,7.04231035 151.385358,2.82438634 161.462356,2.82438634 C177.535027,2.82438634 190.162288,15.3509557 190.162288,34.6523048 C190.162288,53.8260383 177.789311,66.7358676 160.952551,66.7358676 C150.109815,66.7358676 142.329206,60.983665 138.885033,55.1038467 L138.885033,86.4200637 Z" id="Fill-23"></path>
                <path d="M221.030437,59.7054849 C233.530761,59.7054849 242.842434,51.9081281 242.842434,41.04304 L242.842434,35.419279 L239.270913,35.5468946 C218.478938,36.3138274 207.764786,40.0204629 207.764786,49.6073296 C207.764786,55.7432052 212.739611,59.7054849 221.030437,59.7054849 M241.566891,28.9001435 L242.842434,28.9001435 L242.842434,26.7265477 C242.842434,16.2455455 236.719414,10.4937558 225.749741,10.4937558 C215.928263,10.4937558 209.678307,15.4781997 206.36107,21.7412779 C206.36107,21.8701325 201.641766,21.357605 201.641766,16.8844497 C201.641766,12.53891 210.31546,2.82401465 226.388131,2.82401465 C241.821587,2.82401465 251.005911,11.7719772 251.005911,26.4717294 L251.005911,64.8183704 C251.005911,65.0744276 249.73078,65.7129188 248.199716,65.7129188 C245.393933,65.7129188 242.96937,64.3074948 242.96937,57.6607437 L242.96937,55.3599453 C238.122717,62.3899563 229.95924,66.6082933 220.265111,66.6082933 C206.99946,66.6082933 199.345788,59.8331006 199.345788,49.6073296 C199.345788,35.419279 213.504937,29.5386347 241.566891,28.9001435" id="Fill-25"></path>
                <path d="M254.959848,6.27537753 C254.8325,5.76367599 256.108043,3.84613744 259.041175,3.84613744 C261.975131,3.84613744 263.506195,5.1251848 265.291131,9.59834009 L284.552454,57.2770295 L301.262278,9.85439736 C302.79293,5.38000308 304.706451,3.84613744 307.385298,3.84613744 C309.681276,3.84613744 311.722145,5.63606035 311.594797,6.01973326 L282.256476,84.887024 C280.598476,89.3605923 278.558018,90.3831694 276.388977,90.3831694 C274.092999,90.3831694 271.925193,88.5932465 272.052129,88.2099866 L282.256476,62.1338577 C279.450693,62.1338577 278.302498,61.4945405 277.154303,58.9385108 L254.959848,6.27537753 Z" id="Fill-27"></path>
                <path d="M369.360096,52.3038192 C367.204242,52.504948 365.423015,51.9944855 363.32692,51.1325637 L362.040249,54.6347663 C363.918327,55.4847112 366.131467,55.9654381 368.211076,55.9567652 L368.442694,58.4537366 L371.084037,58.2071782 L370.852007,55.7106198 C375.357828,54.8185493 378.028433,51.8135934 377.662461,47.8678335 C377.367788,44.6943753 375.246965,42.6211374 371.655661,41.9937971 L369.013906,41.5258731 C367.184048,41.1996066 366.548955,40.7015339 366.445922,39.5889238 C366.31198,38.1479822 367.448223,37.0134833 369.198953,36.85035 C370.792248,36.7016716 372.283748,37.0275251 374.333684,38.0154106 L376.07205,34.7469634 C374.426414,33.7830317 372.332379,33.2316826 370.169107,33.2192927 L369.959745,30.9659888 L367.307687,31.2133731 L367.513752,33.4336374 C363.678055,34.2567377 361.36518,37.0523048 361.694472,40.597872 C361.805335,41.7947333 362.219938,42.8734778 362.893771,43.7729822 C363.780675,45.0004051 365.179446,45.7095185 367.352609,46.0923654 L369.780881,46.5231198 C371.735615,46.8650802 372.709891,47.6477068 372.838063,49.0304161 C373.015279,50.9392817 371.82175,52.0741936 369.360096,52.3038192" id="Fill-29"></path>
                <path d="M367.300969,23.748643 C378.98033,22.6595736 389.372196,31.3023324 390.459396,43.0111705 C391.546184,54.7191826 382.923593,65.1332795 371.244232,66.2219359 C359.555392,67.3118313 349.165174,58.6707244 348.077974,46.9622993 C346.991187,35.2534612 355.612129,24.8385383 367.300969,23.748643 M371.885507,73.1272222 C387.388613,71.6817377 398.798441,57.9095736 397.355573,42.3677233 C395.912292,26.8246341 382.163625,15.399937 366.660106,16.8454216 C351.142163,18.2921452 339.737281,32.0622443 341.180149,47.6053335 C342.623017,63.1467707 356.367564,74.5735328 371.885507,73.1272222" id="Fill-31"></path>
                <path d="M412.052222,57.9692101 C419.25626,34.3041496 405.906123,9.1754326 382.29394,1.95585661 C367.682684,-2.51110374 351.962385,0.804837885 340.39636,10.5593808 L341.965752,17.3597663 L341.988007,17.3746341 C352.119407,7.31447445 366.87903,3.64955154 380.509416,7.81667709 C400.89297,14.0491936 412.418194,35.7450912 406.197499,56.1788742 L401.418436,54.7176958 L405.782072,67.3991385 L416.466138,59.3188797 L412.052222,57.9692101 Z" id="Fill-33"></path>
                <path d="M391.758356,73.4992914 C382.277905,82.9196563 368.468876,86.3441896 355.713745,82.4443487 C336.642941,76.6135223 325.852927,56.3124775 331.672308,37.1973831 L334.893772,38.1820041 L331.321394,27.8145019 L322.589816,34.4205047 L326.195742,35.5229865 C319.455116,57.6649788 331.95034,81.175316 354.043628,87.9304805 C367.71499,92.1104824 382.423283,89.0090037 393.24569,79.8827112 L391.777637,73.5186128 L391.758356,73.4992914 Z" id="Fill-35"></path>
            </g>
            <path d="M41.7520023,117.788 L40.168002,120.524001 C38.8480018,119.708001 37.2400015,119.096001 35.4040012,119.096001 C33.5200009,119.096001 32.1880007,119.840001 32.1880007,121.112001 C32.1880007,122.348001 33.6400009,122.720001 35.6560013,123.056001 L36.6040014,123.212001 C39.6040019,123.704001 41.9560023,124.988001 41.9560023,127.916002 C41.9560023,131.624003 38.6920018,133.388003 35.0800012,133.388003 C32.5360007,133.388003 29.8000003,132.644003 28,131.192002 L29.7400003,128.492002 C30.9520005,129.464002 32.9320008,130.304002 35.0920012,130.304002 C36.9520015,130.304002 38.3920017,129.572002 38.3920017,128.276002 C38.3920017,127.112002 37.1680015,126.680002 34.8280011,126.308002 L33.7600009,126.140002 C30.7960005,125.672002 28.6360001,124.364001 28.6360001,121.328001 C28.6360001,117.824 31.7560006,116 35.3320012,116 C37.6840016,116 39.6400019,116.528 41.7520023,117.788 Z M63.5440032,116.288 L63.5440032,133.088003 L60.1960026,133.088003 L60.1960026,120.404001 L56.0440019,131.468003 L52.5040014,131.468003 L48.3520007,120.500001 L48.3520007,133.088003 L45.0040001,133.088003 L45.0040001,116.288 L49.9120009,116.288 L54.2800016,127.628002 L58.6360024,116.288 L63.5440032,116.288 Z M76.3240016,116.288 L82.8640027,133.088003 L79.2880021,133.088003 L77.8240018,129.176002 L70.6600007,129.176002 L69.1960004,133.088003 L65.7039999,133.088003 L72.2440009,116.288 L76.3240016,116.288 Z M74.2480013,119.600001 L71.8120009,126.092002 L76.6720017,126.092002 L74.2480013,119.600001 Z M85.0240001,116.288 L92.1280013,116.288 C96.1360019,116.288 98.2840023,118.184 98.2840023,121.400001 C98.2840023,124.160001 96.364002,126.044002 93.1360015,126.356002 L98.3080023,133.088003 L94.2520016,133.088003 L89.3560008,126.404002 L88.3720007,126.404002 L88.3720007,133.088003 L85.0240001,133.088003 L85.0240001,116.288 Z M92.0680013,119.372001 L88.3720007,119.372001 L88.3720007,123.488001 L92.0680013,123.488001 C93.8920016,123.488001 94.8400017,122.816001 94.8400017,121.400001 C94.8400017,120.008001 93.8440016,119.372001 92.0680013,119.372001 Z M113.548002,116.288 L113.548002,119.420001 L108.340001,119.420001 L108.340001,133.088003 L104.992001,133.088003 L104.992001,119.420001 L99.7839999,119.420001 L99.7839999,116.288 L113.548002,116.288 Z M128.344001,126.488002 L124.540001,126.488002 L124.540001,133.088003 L121.828,133.088003 L121.828,116.288 L128.344001,116.288 C132.220002,116.288 134.296002,118.244 134.296002,121.388001 C134.296002,124.532001 132.220002,126.488002 128.344001,126.488002 Z M128.272001,118.844 L124.540001,118.844 L124.540001,123.932001 L128.272001,123.932001 C130.468002,123.932001 131.476002,123.116001 131.476002,121.388001 C131.476002,119.660001 130.468002,118.844 128.272001,118.844 Z M144.736002,116.288 L151.372003,133.088003 L148.456002,133.088003 L146.800002,128.804002 L139.192001,128.804002 L137.536,133.088003 L134.716,133.088003 L141.352001,116.288 L144.736002,116.288 Z M142.996001,118.988 L140.188001,126.236002 L145.804002,126.236002 L142.996001,118.988 Z M166.120002,116.288 L159.640001,126.272002 L159.640001,133.088003 L156.928001,133.088003 L156.928001,126.224002 L150.4,116.288 L153.64,116.288 L158.296001,123.812001 L162.964002,116.288 L166.120002,116.288 Z M186.604003,116.288 L186.604003,133.088003 L183.892003,133.088003 L183.892003,119.264001 L178.984002,131.444003 L176.128001,131.444003 L171.220001,119.396001 L171.220001,133.088003 L168.508,133.088003 L168.508,116.288 L172.672001,116.288 L177.556002,128.288002 L182.440002,116.288 L186.604003,116.288 Z M203.416002,130.544002 L203.416002,133.088003 L191.164,133.088003 L191.164,116.288 L203.260002,116.288 L203.260002,118.832 L193.876001,118.832 L193.876001,123.356001 L202.936002,123.356001 L202.936002,125.900002 L193.876001,125.900002 L193.876001,130.544002 L203.416002,130.544002 Z M222.064003,116.288 L222.064003,133.088003 L219.616002,133.088003 L210.244001,120.932001 L210.232001,133.088003 L207.52,133.088003 L207.52,116.288 L209.968001,116.288 L219.352002,128.444002 L219.352002,116.288 L222.064003,116.288 Z M238.384002,116.288 L238.384002,118.856 L232.948001,118.856 L232.948001,133.088003 L230.236001,133.088003 L230.236001,118.856 L224.8,118.856 L224.8,116.288 L238.384002,116.288 Z M259.216002,117.884 L258.136002,119.600001 C256.768002,118.676 255.100002,118.052 253.156001,118.052 C250.696001,118.052 248.944,119.156001 248.944,120.968001 C248.944,122.492001 250.228001,123.272001 252.748001,123.584001 L254.224001,123.764001 C257.068002,124.112001 259.504002,125.264002 259.504002,128.228002 C259.504002,131.576003 256.468002,133.328003 252.832001,133.328003 C250.444001,133.328003 247.828,132.500003 246.208,131.144002 L247.36,129.464002 C248.524,130.472002 250.696001,131.324003 252.832001,131.324003 C255.340002,131.324003 257.308002,130.304002 257.308002,128.408002 C257.308002,126.848002 255.904002,126.104002 253.288001,125.780002 L251.728001,125.588002 C248.956,125.252002 246.748,123.968001 246.748,121.100001 C246.748,117.86 249.628001,116.048 253.168001,116.048 C255.700002,116.048 257.632002,116.792 259.216002,117.884 Z M271.060001,116.036 C276.100002,116.036 279.760003,119.660001 279.760003,124.688001 C279.760003,129.716002 276.100002,133.340003 271.060001,133.340003 C266.020001,133.340003 262.36,129.716002 262.36,124.688001 C262.36,119.660001 266.020001,116.036 271.060001,116.036 Z M271.060001,118.064 C267.364001,118.064 264.568,120.740001 264.568,124.688001 C264.568,128.636002 267.364001,131.312003 271.060001,131.312003 C274.756002,131.312003 277.552003,128.636002 277.552003,124.688001 C277.552003,120.740001 274.756002,118.064 271.060001,118.064 Z M295.324002,131.084002 L295.324002,133.088003 L283.588,133.088003 L283.588,116.288 L285.700001,116.288 L285.700001,131.084002 L295.324002,131.084002 Z M311.596002,116.288 L311.596002,126.500002 C311.596002,131.084002 308.500002,133.328003 304.624001,133.328003 C300.748001,133.328003 297.652,131.084002 297.652,126.500002 L297.652,116.288 L299.764001,116.288 L299.764001,126.344002 C299.764001,129.788002 301.816001,131.300003 304.624001,131.300003 C307.432002,131.300003 309.472002,129.788002 309.472002,126.344002 L309.472002,116.288 L311.596002,116.288 Z M327.808002,116.288 L327.808002,118.292 L322.084001,118.292 L322.084001,133.088003 L319.972001,133.088003 L319.972001,118.292 L314.236,118.292 L314.236,116.288 L327.808002,116.288 Z M332.788001,116.288 L332.788001,133.088003 L330.676,133.088003 L330.676,116.288 L332.788001,116.288 Z M345.328001,116.036 C350.368002,116.036 354.028003,119.660001 354.028003,124.688001 C354.028003,129.716002 350.368002,133.340003 345.328001,133.340003 C340.288001,133.340003 336.628,129.716002 336.628,124.688001 C336.628,119.660001 340.288001,116.036 345.328001,116.036 Z M345.328001,118.064 C341.632001,118.064 338.836,120.740001 338.836,124.688001 C338.836,128.636002 341.632001,131.312003 345.328001,131.312003 C349.024002,131.312003 351.820003,128.636002 351.820003,124.688001 C351.820003,120.740001 349.024002,118.064 345.328001,118.064 Z M372.040003,116.288 L372.040003,133.100003 L370.132002,133.100003 L359.980001,119.900001 L359.968001,133.088003 L357.856,133.088003 L357.856,116.276 L359.764001,116.276 L369.928002,129.476002 L369.928002,116.288 L372.040003,116.288 Z M388.876002,117.884 L387.796002,119.600001 C386.428002,118.676 384.760002,118.052 382.816001,118.052 C380.356001,118.052 378.604,119.156001 378.604,120.968001 C378.604,122.492001 379.888001,123.272001 382.408001,123.584001 L383.884001,123.764001 C386.728002,124.112001 389.164002,125.264002 389.164002,128.228002 C389.164002,131.576003 386.128002,133.328003 382.492001,133.328003 C380.104001,133.328003 377.488,132.500003 375.868,131.144002 L377.02,129.464002 C378.184,130.472002 380.356001,131.324003 382.492001,131.324003 C385.000002,131.324003 386.968002,130.304002 386.968002,128.408002 C386.968002,126.848002 385.564002,126.104002 382.948001,125.780002 L381.388001,125.588002 C378.616,125.252002 376.408,123.968001 376.408,121.100001 C376.408,117.86 379.288001,116.048 382.828001,116.048 C385.360002,116.048 387.292002,116.792 388.876002,117.884 Z" id="SMART-PAYMENT-SOLUTI" fill="#4A4A4A"></path>
        </g>
    </g>
</svg>