<?xml version="1.0" encoding="UTF-8"?>
<svg width="274px" height="40px" viewBox="0 0 274 40" version="1.1" xmlns="http://www.w3.org/2000/svg" xmlns:xlink="http://www.w3.org/1999/xlink">
    <!-- Generator: Sketch 52.2 (67145) - http://www.bohemiancoding.com/sketch -->
    <title>logo</title>
    <desc>Created with Sketch.</desc>
    <g id="1.1" stroke="none" stroke-width="1" fill="none" fill-rule="evenodd">
        <g id="Landing" transform="translate(-583.000000, -45.000000)">
            <g id="hero-2" transform="translate(0.000000, 5.000000)">
                <g id="logo" transform="translate(583.000000, 40.000000)">
                    <g id="full-logo" fill="#FF173D">
                        <path d="M19.1608476,16.4908289 L19.1608476,18.0409693 C19.1608476,22.2785764 15.4940949,25.3543498 10.4423022,25.3543498 C7.34034965,25.3543498 5.48836453,24.0276808 5.48836453,21.8053107 C5.48836453,18.4323621 9.38278006,16.8500897 18.5090853,16.5144287 L19.1608476,16.4908289 Z M12.8022624,0.351687224 C5.17337637,0.351687224 1.01153862,5.02225894 1.01153862,7.42180873 C1.01153862,8.47399443 1.47793895,9.35898499 2.32468521,9.91394215 C2.97717365,10.3409161 3.6665166,10.4538318 3.9401115,10.4538318 L4.87000738,10.4463888 L4.87000738,9.78341739 C5.98853304,7.785971 8.21069733,5.50242305 12.521224,5.50242305 C16.8647927,5.50242305 19.1608476,7.66198156 19.1608476,11.7480057 L19.1608476,11.8213464 C10.1703412,12.0504455 -5.44648109e-05,13.43684 -5.44648109e-05,21.8053107 C-5.44648109e-05,26.9634895 3.87203049,30.1681538 10.1049835,30.1681538 C13.7140034,30.1681538 16.9535703,28.9090165 19.3000959,26.650339 C19.5894856,28.7249384 20.6321237,29.7745826 22.4107628,29.7745826 C23.2328184,29.7745826 24.5367059,29.4260325 24.5367059,28.4914825 L24.5367059,11.6359976 C24.5367059,4.67570572 20.0402727,0.351687224 12.8022624,0.351687224 Z" id="Fill-18"></path>
                        <path d="M50.4884803,24.4853526 L36.1266543,24.4853526 L51.2542555,5.9915006 C52.3186795,4.69042833 52.9052655,3.97390366 52.9052655,3.04389205 L52.9052655,2.7548859 C52.9052655,1.1455646 51.9190893,0.222814445 50.1994537,0.222814445 L31.3657036,0.222814445 C29.0338835,0.222814445 28.5442449,1.50555153 28.5442449,2.58170005 L28.5442449,2.92825328 C28.5442449,4.0044018 29.0338835,5.28713889 31.3657036,5.28713889 L45.0345557,5.28713889 L30.1952549,23.4344376 C29.1308309,24.7355099 28.5442449,25.4520346 28.5442449,26.4976849 L28.5442449,27.0176056 C28.5442449,28.6269269 29.5304211,29.5498585 31.2498751,29.5498585 L50.4884803,29.5498585 C52.8201188,29.5498585 53.3093944,28.2669399 53.3093944,27.1909729 L53.3093944,26.8442382 C53.3093944,25.7682712 52.8201188,24.4853526 50.4884803,24.4853526" id="Fill-21"></path>
                        <path d="M70.6207078,26.1315984 C76.2963041,26.1315984 80.0610934,21.7493067 80.0610934,15.2880587 C80.0610934,8.99509503 76.1276448,4.44415588 70.7332684,4.44415588 C66.0696282,4.44415588 62.8106354,6.91613874 61.124768,10.7932143 L61.124768,17.0856333 C61.124768,22.1986096 65.5638316,26.1315984 70.6207078,26.1315984 Z M61.1808667,37.9868412 C61.1808667,39.3352945 60.5065924,39.7288657 59.5516427,39.7288657 L59.1584068,39.7288657 C58.2029124,39.7288657 57.5286381,39.3352945 57.5286381,37.9868412 L57.5286381,2.08418105 C57.5286381,1.97162841 58.0903518,1.69060987 58.7648077,1.69060987 C60.0007958,1.69060987 61.124768,2.30874173 61.124768,5.23039057 L61.124768,6.41037798 C63.5410085,3.09552103 66.6874407,1.2414885 71.1265043,1.2414885 C78.2067482,1.2414885 83.7692393,6.74767285 83.7692393,15.2317823 C83.7692393,23.6597971 78.3187641,29.3344473 70.9019277,29.3344473 C66.1255454,29.3344473 62.6980748,26.8060066 61.1808667,24.2214711 L61.1808667,37.9868412 Z" id="Fill-23"></path>
                        <path d="M97.3671055,26.2441692 C102.873679,26.2441692 106.975606,22.8167596 106.975606,18.0408967 L106.975606,15.5689138 L105.402299,15.6250086 C96.2431334,15.9621219 91.5233944,17.5914123 91.5233944,21.8054196 C91.5233944,24.5025078 93.7148769,26.2441692 97.3671055,26.2441692 M106.413711,12.7033598 L106.975606,12.7033598 L106.975606,11.747933 C106.975606,7.14089911 104.278327,4.61263993 99.4460274,4.61263993 C95.1195243,4.61263993 92.3663282,6.80360425 90.9050373,9.55660565 C90.9050373,9.61324505 88.8261154,9.38795822 88.8261154,7.42173612 C88.8261154,5.5116088 92.6470035,1.24132512 99.7272473,1.24132512 C106.525908,1.24132512 110.571736,5.17449547 110.571736,11.635925 L110.571736,28.4915914 C110.571736,28.604144 110.010022,28.8847995 109.335566,28.8847995 C108.099578,28.8847995 107.031523,28.2670307 107.031523,25.3453819 L107.031523,24.3340419 C104.896503,27.4241566 101.300373,29.2783707 97.0299684,29.2783707 C91.1862573,29.2783707 87.8147039,26.300264 87.8147039,21.8054196 C87.8147039,15.5689138 94.0520141,12.9840152 106.413711,12.7033598" id="Fill-25"></path>
                        <path d="M112.313502,2.75840771 C112.257404,2.53348395 112.819299,1.69060987 114.111386,1.69060987 C115.403836,1.69060987 116.078292,2.25282848 116.864582,4.21905059 L125.349473,25.1767163 L132.710392,4.33160323 C133.384667,2.36483652 134.227601,1.69060987 135.407671,1.69060987 C136.419083,1.69060987 137.318115,2.47738917 137.262017,2.6460366 L124.338062,37.3129776 C123.607689,39.2793812 122.708838,39.7288657 121.753343,39.7288657 C120.741932,39.7288657 119.786982,38.9420864 119.842899,38.7736205 L124.338062,27.3115858 C123.102074,27.3115858 122.596277,27.0305673 122.090481,25.9070377 L112.313502,2.75840771 Z" id="Fill-27"></path>
                        <path d="M162.708467,22.9906897 C161.758782,23.079098 160.974125,22.8547189 160.050765,22.4758522 L159.483968,24.0152819 C160.311289,24.3888841 161.286209,24.6001926 162.202307,24.5963803 L162.304338,25.6939501 L163.467888,25.5855728 L163.365675,24.4881845 C165.350555,24.0960656 166.526994,22.7752059 166.365779,21.0408059 C166.235971,19.6458793 165.301718,18.7345659 163.719697,18.4588119 L162.555965,18.253131 C161.749886,18.1097172 161.470118,17.8907841 161.424731,17.4017247 C161.365727,16.7683438 161.866259,16.269663 162.637481,16.197956 C163.339351,16.1326029 163.996378,16.2758352 164.899404,16.7100706 L165.66518,15.2733905 C164.940253,14.8496843 164.017801,14.607333 163.064848,14.6018869 L162.972621,13.6114236 L161.804351,13.720164 L161.895125,14.6961044 C160.205445,15.0579067 159.18659,16.2867274 159.331648,17.8452185 C159.380485,18.3713113 159.563124,18.8454847 159.859957,19.2408713 C160.250651,19.7803978 160.86683,20.092096 161.82414,20.2603804 L162.893828,20.449723 C163.754917,20.6000352 164.1841,20.944047 164.240562,21.5518312 C164.318628,22.3908931 163.792861,22.8897554 162.708467,22.9906897" id="Fill-29"></path>
                        <path d="M161.801391,10.4389639 C166.946319,9.96025212 171.524086,13.759267 172.003014,18.906009 C172.481759,24.052388 168.683383,28.630013 163.538456,29.1085433 C158.389353,29.5876181 153.812311,25.7893294 153.333384,20.6427689 C152.854639,15.4960269 156.652288,10.9180388 161.801391,10.4389639 M163.820947,32.143834 C170.650289,31.5084561 175.676484,25.4547576 175.040879,18.6231751 C174.405093,11.791048 168.348606,6.76920308 161.519082,7.40458092 C154.683204,8.04050336 149.659188,14.0932942 150.294792,20.9254213 C150.930397,27.7568223 156.985068,32.7795749 163.820947,32.143834" id="Fill-31"></path>
                        <path d="M181.514966,25.4809715 C184.688449,15.0787471 178.80752,4.03315719 168.406012,0.85971719 C161.969542,-1.10378187 155.044523,0.353774895 149.949522,4.64148608 L150.640862,7.63066651 L150.650665,7.63720182 C155.113694,3.2151536 161.615521,1.60419848 167.619903,3.43590202 C176.599154,6.17546972 181.676182,15.712128 178.935876,24.6940106 L176.830629,24.0517344 L178.752874,29.625995 L183.45936,26.0742329 L181.514966,25.4809715 Z" id="Fill-33"></path>
                        <path d="M172.575224,32.3073808 C168.398948,36.4482006 162.315871,37.9534899 156.697052,36.2392741 C148.296087,33.6762735 143.542929,24.7527374 146.106451,16.3504981 L147.525552,16.7832985 L145.951868,12.2261547 L142.105482,15.1298922 L143.693944,15.6144996 C140.724601,25.3472434 146.228928,35.6814576 155.961341,38.6507606 C161.983774,40.4881241 168.46299,39.1248368 173.230416,35.1132796 L172.583718,32.3158738 L172.575224,32.3073808 Z" id="Fill-35"></path>
                    </g>
                    <path d="M207.87911,0.908736413 L207.072307,2.29928609 C206.399972,1.88456075 205.580945,1.57351674 204.645788,1.57351674 C203.686182,1.57351674 203.007735,1.95164867 203.007735,2.59813229 C203.007735,3.22631921 203.747304,3.41538518 204.774143,3.58615443 L205.257002,3.66544016 C206.785037,3.91549515 207.983016,4.56807767 207.983016,6.05620978 C207.983016,7.94077053 206.320514,8.83730914 204.48076,8.83730914 C203.184987,8.83730914 201.791419,8.45917721 200.874598,7.72121006 L201.760858,6.34895708 C202.378184,6.84296815 203.386687,7.2698913 204.486872,7.2698913 C205.434254,7.2698913 206.167711,6.89785827 206.167711,6.23917685 C206.167711,5.64758334 205.544272,5.42802287 204.352405,5.2389569 L203.808425,5.15357227 C202.298727,4.91571509 201.198541,4.25093476 201.198541,2.70791253 C201.198541,0.927033119 202.787698,0 204.609115,0 C205.807094,0 206.803373,0.268351692 207.87911,0.908736413 Z M218.978753,0.14637365 L218.978753,8.68483659 L217.273466,8.68483659 L217.273466,2.23829707 L215.158666,7.86148481 L213.355585,7.86148481 L211.240785,2.28708829 L211.240785,8.68483659 L209.535498,8.68483659 L209.535498,0.14637365 L212.035363,0.14637365 L214.260182,5.90983613 L216.478888,0.14637365 L218.978753,0.14637365 Z M225.48818,0.14637365 L228.819296,8.68483659 L226.997878,8.68483659 L226.252197,6.6965945 L222.60325,6.6965945 L221.857569,8.68483659 L220.078936,8.68483659 L223.410052,0.14637365 L225.48818,0.14637365 Z M224.43078,1.82967063 L223.190015,5.12917666 L225.665432,5.12917666 L224.43078,1.82967063 Z M229.919479,0.14637365 L233.537866,0.14637365 C235.57932,0.14637365 236.673393,1.11000018 236.673393,2.74450594 C236.673393,4.14725343 235.695451,5.10478106 234.051285,5.26335251 L236.685617,8.68483659 L234.619714,8.68483659 L232.125961,5.28774812 L231.624766,5.28774812 L231.624766,8.68483659 L229.919479,8.68483659 L229.919479,0.14637365 Z M233.507305,1.71379149 L231.624766,1.71379149 L231.624766,3.80571491 L233.507305,3.80571491 C234.43635,3.80571491 234.919209,3.46417639 234.919209,2.74450594 C234.919209,2.0370333 234.411902,1.71379149 233.507305,1.71379149 Z M244.448033,0.14637365 L244.448033,1.7381871 L241.795364,1.7381871 L241.795364,8.68483659 L240.090078,8.68483659 L240.090078,1.7381871 L237.437409,1.7381871 L237.437409,0.14637365 L244.448033,0.14637365 Z M204.774143,17.857913 L202.836595,17.857913 L202.836595,21.2123091 L201.455251,21.2123091 L201.455251,12.6738462 L204.774143,12.6738462 C206.748364,12.6738462 207.805764,13.6679672 207.805764,15.2658796 C207.805764,16.8637919 206.748364,17.857913 204.774143,17.857913 Z M204.73747,13.9729123 L202.836595,13.9729123 L202.836595,16.5588468 L204.73747,16.5588468 C205.855992,16.5588468 206.369411,16.1441215 206.369411,15.2658796 C206.369411,14.3876377 205.855992,13.9729123 204.73747,13.9729123 Z M213.123324,12.6738462 L216.503337,21.2123091 L215.018087,21.2123091 L214.174612,19.0350011 L210.299516,19.0350011 L209.45604,21.2123091 L208.019688,21.2123091 L211.399701,12.6738462 L213.123324,12.6738462 Z M212.237064,14.0460992 L210.806823,17.729836 L213.667304,17.729836 L212.237064,14.0460992 Z M224.015155,12.6738462 L220.7146,17.7481327 L220.7146,21.2123091 L219.333256,21.2123091 L219.333256,17.7237371 L216.008252,12.6738462 L217.65853,12.6738462 L220.03004,16.4978578 L222.407662,12.6738462 L224.015155,12.6738462 Z M234.448575,12.6738462 L234.448575,21.2123091 L233.067232,21.2123091 L233.067232,14.1863739 L230.567367,20.3767595 L229.112678,20.3767595 L226.612813,14.2534618 L226.612813,21.2123091 L225.231469,21.2123091 L225.231469,12.6738462 L227.352381,12.6738462 L229.840022,18.7727483 L232.327663,12.6738462 L234.448575,12.6738462 Z M243.01168,19.9193419 L243.01168,21.2123091 L236.771186,21.2123091 L236.771186,12.6738462 L242.932223,12.6738462 L242.932223,13.9668134 L238.15253,13.9668134 L238.15253,16.2660995 L242.767195,16.2660995 L242.767195,17.5590668 L238.15253,17.5590668 L238.15253,19.9193419 L243.01168,19.9193419 Z M252.509943,12.6738462 L252.509943,21.2123091 L251.263067,21.2123091 L246.489486,15.0341213 L246.483374,21.2123091 L245.102031,21.2123091 L245.102031,12.6738462 L246.348907,12.6738462 L251.1286,18.852034 L251.1286,12.6738462 L252.509943,12.6738462 Z M260.822451,12.6738462 L260.822451,13.9790112 L258.053652,13.9790112 L258.053652,21.2123091 L256.672309,21.2123091 L256.672309,13.9790112 L253.90351,13.9790112 L253.90351,12.6738462 L260.822451,12.6738462 Z M207.646848,26.0124727 L207.096756,26.8846157 C206.399972,26.4150002 205.550385,26.0978573 204.560218,26.0978573 C203.307229,26.0978573 202.414857,26.6589563 202.414857,27.5798905 C202.414857,28.3544511 203.068856,28.7508797 204.352405,28.9094512 L205.104198,29.0009347 C206.552775,29.1778029 207.79354,29.7632975 207.79354,31.2697263 C207.79354,32.97132 206.247168,33.8617597 204.39519,33.8617597 C203.178875,33.8617597 201.846428,33.4409354 201.021289,32.7517595 L201.608055,31.8979132 C202.200932,32.410221 203.307229,32.843243 204.39519,32.843243 C205.672627,32.843243 206.675018,32.3248364 206.675018,31.3612098 C206.675018,30.5683526 205.959898,30.1902206 204.627452,30.0255503 L203.832873,29.9279678 C202.420969,29.7571986 201.296336,29.104616 201.296336,27.6469784 C201.296336,26.0002749 202.763249,25.0793407 204.56633,25.0793407 C205.855992,25.0793407 206.840046,25.4574726 207.646848,26.0124727 Z M213.679528,25.0732418 C216.246627,25.0732418 218.110829,26.9151102 218.110829,29.4705502 C218.110829,32.0259902 216.246627,33.8678586 213.679528,33.8678586 C211.11243,33.8678586 209.248228,32.0259902 209.248228,29.4705502 C209.248228,26.9151102 211.11243,25.0732418 213.679528,25.0732418 Z M213.679528,26.1039562 C211.79699,26.1039562 210.372861,27.4640114 210.372861,29.4705502 C210.372861,31.477089 211.79699,32.8371441 213.679528,32.8371441 C215.562067,32.8371441 216.986196,31.477089 216.986196,29.4705502 C216.986196,27.4640114 215.562067,26.1039562 213.679528,26.1039562 Z M226.038272,32.721265 L226.038272,33.7397816 L220.0606,33.7397816 L220.0606,25.2013187 L221.136337,25.2013187 L221.136337,32.721265 L226.038272,32.721265 Z M234.326332,25.2013187 L234.326332,30.3914844 C234.326332,32.721265 232.7494,33.8617597 230.775179,33.8617597 C228.800958,33.8617597 227.224026,32.721265 227.224026,30.3914844 L227.224026,25.2013187 L228.299763,25.2013187 L228.299763,30.3121987 C228.299763,32.0625836 229.344939,32.8310452 230.775179,32.8310452 C232.20542,32.8310452 233.244483,32.0625836 233.244483,30.3121987 L233.244483,25.2013187 L234.326332,25.2013187 Z M242.583831,25.2013187 L242.583831,26.2198354 L239.66834,26.2198354 L239.66834,33.7397816 L238.592604,33.7397816 L238.592604,26.2198354 L235.671001,26.2198354 L235.671001,25.2013187 L242.583831,25.2013187 Z M245.120367,25.2013187 L245.120367,33.7397816 L244.044631,33.7397816 L244.044631,25.2013187 L245.120367,25.2013187 Z M251.507552,25.0732418 C254.074651,25.0732418 255.938853,26.9151102 255.938853,29.4705502 C255.938853,32.0259902 254.074651,33.8678586 251.507552,33.8678586 C248.940454,33.8678586 247.076251,32.0259902 247.076251,29.4705502 C247.076251,26.9151102 248.940454,25.0732418 251.507552,25.0732418 Z M251.507552,26.1039562 C249.625013,26.1039562 248.200885,27.4640114 248.200885,29.4705502 C248.200885,31.477089 249.625013,32.8371441 251.507552,32.8371441 C253.390091,32.8371441 254.81422,31.477089 254.81422,29.4705502 C254.81422,27.4640114 253.390091,26.1039562 251.507552,26.1039562 Z M265.113173,25.2013187 L265.113173,33.7458805 L264.141342,33.7458805 L258.970473,27.0370882 L258.96436,33.7397816 L257.888624,33.7397816 L257.888624,25.1952198 L258.860454,25.1952198 L264.037436,31.9040121 L264.037436,25.2013187 L265.113173,25.2013187 Z M273.688502,26.0124727 L273.13841,26.8846157 C272.441626,26.4150002 271.592039,26.0978573 270.601872,26.0978573 C269.348883,26.0978573 268.456511,26.6589563 268.456511,27.5798905 C268.456511,28.3544511 269.11051,28.7508797 270.394059,28.9094512 L271.145852,29.0009347 C272.594429,29.1778029 273.835194,29.7632975 273.835194,31.2697263 C273.835194,32.97132 272.288822,33.8617597 270.436844,33.8617597 C269.220529,33.8617597 267.888082,33.4409354 267.062943,32.7517595 L267.649709,31.8979132 C268.242586,32.410221 269.348883,32.843243 270.436844,32.843243 C271.714281,32.843243 272.716672,32.3248364 272.716672,31.3612098 C272.716672,30.5683526 272.001552,30.1902206 270.669106,30.0255503 L269.874527,29.9279678 C268.462623,29.7571986 267.33799,29.104616 267.33799,27.6469784 C267.33799,26.0002749 268.804903,25.0793407 270.607984,25.0793407 C271.897646,25.0793407 272.8817,25.4574726 273.688502,26.0124727 Z" id="SMART-PAYMENT-SOLUTI" fill="#4A4A4A"></path>
                </g>
            </g>
        </g>
    </g>
</svg>