<?xml version="1.0" encoding="UTF-8"?>
<svg width="267px" height="58px" viewBox="0 0 267 58" version="1.1" xmlns="http://www.w3.org/2000/svg" xmlns:xlink="http://www.w3.org/1999/xlink">
    <!-- Generator: Sketch 52.2 (67145) - http://www.bohemiancoding.com/sketch -->
    <title>Artboard@2x</title>
    <desc>Created with Sketch.</desc>
    <g id="Artboard" stroke="none" stroke-width="1" fill="none" fill-rule="evenodd">
        <g id="full-logo-copy" transform="translate(54.000000, 12.000000)" fill="#FF173D">
            <path d="M16.585005,14.4294753 L16.585005,15.7858481 C16.585005,19.4937544 13.4111835,22.185056 9.03851635,22.185056 C6.35356736,22.185056 4.75054942,21.0242207 4.75054942,19.0796469 C4.75054942,16.1283168 8.12142854,14.7438285 16.0208609,14.4501251 L16.585005,14.4294753 Z M11.081221,0.307726321 C4.47790594,0.307726321 0.875554856,4.39447658 0.875554856,6.49408264 C0.875554856,7.41474513 1.27925578,8.18911187 2.01217174,8.67469938 C2.57694445,9.04830155 3.17361725,9.1471028 3.41043207,9.1471028 L4.21531962,9.14059018 L4.21531962,8.56049022 C5.18347898,6.81272463 7.10691194,4.81462017 10.8379633,4.81462017 C14.5976148,4.81462017 16.585005,6.70423386 16.585005,10.279505 L16.585005,10.3436781 C8.80311581,10.5441398 -4.71429648e-05,11.757235 -4.71429648e-05,19.0796469 C-4.71429648e-05,23.5930533 3.35150337,26.3971346 8.74654425,26.3971346 C11.8703942,26.3971346 14.6744578,25.2953894 16.7055339,23.3190466 C16.9560201,25.1343211 17.8584936,26.0527598 19.3980257,26.0527598 C20.1095702,26.0527598 21.2381728,25.7477784 21.2381728,24.9300471 L21.2381728,10.1814979 C21.2381728,4.0912425 17.3462067,0.307726321 11.081221,0.307726321 Z" id="Fill-18"></path>
            <path d="M43.7011826,21.4246835 L31.2700542,21.4246835 L44.3640127,5.24256303 C45.2853434,4.10412479 45.7930731,3.47716571 45.7930731,2.66340554 L45.7930731,2.41052516 C45.7930731,1.00236903 44.9394712,0.19496264 43.4510106,0.19496264 L27.1491306,0.19496264 C25.1307831,0.19496264 24.7069678,1.31735759 24.7069678,2.25898755 L24.7069678,2.56222162 C24.7069678,3.50385158 25.1307831,4.62624653 27.1491306,4.62624653 L38.9804433,4.62624653 L26.1360282,20.5051329 C25.2146976,21.6435712 24.7069678,22.2705302 24.7069678,23.1854743 L24.7069678,23.6404049 C24.7069678,25.048561 25.5605698,25.8561262 27.0488732,25.8561262 L43.7011826,25.8561262 C45.7193729,25.8561262 46.1428739,24.7335724 46.1428739,23.7921013 L46.1428739,23.4887084 C46.1428739,22.5472373 45.7193729,21.4246835 43.7011826,21.4246835" id="Fill-21"></path>
            <path d="M61.1269824,22.8651486 C66.0395936,22.8651486 69.2982725,19.0306433 69.2982725,13.3770513 C69.2982725,7.87070815 65.8936076,3.88863639 61.2244112,3.88863639 C57.1877163,3.88863639 54.3668384,6.0516214 52.9076065,9.44406252 L52.9076065,14.9499292 C52.9076065,19.4237834 56.7499153,22.8651486 61.1269824,22.8651486 Z M52.9561638,33.238486 C52.9561638,34.4183827 52.3725338,34.7627575 51.5459605,34.7627575 L51.2055883,34.7627575 C50.3785436,34.7627575 49.7949137,34.4183827 49.7949137,33.238486 L49.7949137,1.82365842 C49.7949137,1.72517486 50.2811148,1.47928363 50.8649018,1.47928363 C51.9347328,1.47928363 52.9076065,2.02014902 52.9076065,4.57659175 L52.9076065,5.60908074 C54.9990256,2.7085809 57.7224746,1.08630244 61.5647834,1.08630244 C67.6932117,1.08630244 72.5079227,5.90421374 72.5079227,13.3278096 C72.5079227,20.7023224 67.790169,25.6676414 61.3703972,25.6676414 C57.2361164,25.6676414 54.2694096,23.4552558 52.9561638,21.1937872 L52.9561638,33.238486 Z" id="Fill-23"></path>
            <path d="M84.2777924,22.963648 C89.0441033,22.963648 92.5945971,19.9646646 92.5945971,15.7857846 L92.5945971,13.6227996 L91.232794,13.6718825 C83.3049187,13.9668567 79.2196666,15.3924857 79.2196666,19.0797422 C79.2196666,21.4396943 81.1165423,22.963648 84.2777924,22.963648 M92.1082388,11.1154398 L92.5945971,11.1154398 L92.5945971,10.2794414 C92.5945971,6.24828672 90.2599203,4.03605994 86.0772394,4.03605994 C82.3323594,4.03605994 79.9492825,5.95315372 78.6844368,8.36202995 C78.6844368,8.41158942 76.8849898,8.21446344 76.8849898,6.4940191 C76.8849898,4.8226577 80.1922259,1.08615948 86.3206542,1.08615948 C92.2053534,1.08615948 95.7072899,4.52768354 95.7072899,10.1814344 L95.7072899,24.9301425 C95.7072899,25.028626 95.2210888,25.2741996 94.6373018,25.2741996 C93.5674707,25.2741996 92.6429972,24.7336519 92.6429972,22.1772091 L92.6429972,21.2922866 C90.794993,23.996137 87.6823002,25.6185743 83.9859774,25.6185743 C78.9278516,25.6185743 76.009545,23.012731 76.009545,19.0797422 C76.009545,13.6227996 81.4083573,11.3610133 92.1082388,11.1154398" id="Fill-25"></path>
            <path d="M97.2149062,2.41360674 C97.166349,2.21679846 97.6527072,1.47928363 98.7710955,1.47928363 C99.889798,1.47928363 100.473585,1.97122492 101.154172,3.69166926 L108.498418,22.0296267 L114.869789,3.79015283 C115.453419,2.06923196 116.183035,1.47928363 117.204466,1.47928363 C118.079911,1.47928363 118.858084,2.16771552 118.809527,2.31528202 L107.622973,32.6488554 C106.990786,34.3694586 106.21277,34.7627575 105.385725,34.7627575 C104.51028,34.7627575 103.683707,34.0743256 103.732107,33.9269179 L107.622973,23.8976376 C106.553142,23.8976376 106.115341,23.6517464 105.67754,22.668658 L97.2149062,2.41360674 Z" id="Fill-27"></path>
            <path d="M140.835144,20.1168535 C140.013128,20.1942108 139.333955,19.997879 138.534725,19.6663706 L138.044124,21.0133717 C138.760225,21.3402736 139.604084,21.5251685 140.397029,21.5218328 L140.485344,22.4822064 L141.492474,22.3873762 L141.404003,21.4271615 C143.12205,21.0840574 144.140338,19.9283052 144.000794,18.4107052 C143.888437,17.1901444 143.079778,16.3927452 141.710432,16.1514604 L140.703144,15.9714897 C140.005428,15.8460025 139.76327,15.6544361 139.723985,15.2265091 C139.672913,14.6723008 140.106157,14.2359551 140.773701,14.1732115 C141.381217,14.1160275 141.949918,14.2413558 142.731549,14.6213118 L143.394379,13.3642167 C142.766906,12.9934737 141.968461,12.7814164 141.143617,12.7766511 L141.063788,11.9099957 L140.052571,12.0051435 L140.131143,12.8590913 C138.668611,13.1756683 137.786723,14.2508865 137.912281,15.6145662 C137.954552,16.0748974 138.112638,16.4897991 138.369567,16.8357624 C138.70774,17.3078481 139.241084,17.580584 140.0697,17.7278329 L140.995588,17.8935076 C141.740918,18.0250308 142.112404,18.3260411 142.161276,18.8578523 C142.228848,19.5920314 141.773761,20.028536 140.835144,20.1168535" id="Fill-29"></path>
            <path d="M140.05001,9.13409344 C144.503291,8.7152206 148.465658,12.0393586 148.880201,16.5427579 C149.294588,21.0458395 146.006838,25.0512614 141.553556,25.4699753 C137.09666,25.8891659 133.134923,22.5656632 132.720379,18.0624228 C132.305992,13.5590236 135.593114,9.55328397 140.05001,9.13409344 M141.798071,28.1258547 C147.709327,27.5698991 152.059837,22.2729129 151.509679,16.2952782 C150.959363,10.317167 145.717066,5.92305269 139.805652,6.4790083 C133.888739,7.03544044 129.540114,12.3316324 130.090273,18.3097436 C130.640431,24.2872195 135.881157,28.682128 141.798071,28.1258547" id="Fill-31"></path>
            <path d="M157.113437,22.2958501 C159.860301,13.1939037 154.76996,3.52901254 145.766754,0.752252541 C140.195556,-0.965809133 134.201485,0.309553033 129.791418,4.06130032 L130.389819,6.67683319 L130.398305,6.68255159 C134.261357,2.8132594 139.889126,1.40367367 145.086324,3.00641427 C152.85847,5.403536 157.25298,13.748112 154.881061,21.6072593 L153.058828,21.0452676 L154.72266,25.9227456 L158.796441,22.8149537 L157.113437,22.2958501 Z" id="Fill-33"></path>
            <path d="M149.375488,28.2689582 C145.76064,31.8921755 140.495327,33.2093037 135.63186,31.7093649 C128.360258,29.4667393 124.24608,21.6586452 126.464981,14.3066858 L127.693309,14.6853862 L126.331179,10.6978853 L123.001872,13.2386557 L124.376794,13.6626871 C121.806627,22.178838 126.570993,31.2212754 134.995052,33.8194156 C140.207874,35.4271086 145.816072,34.2342322 149.942601,30.7241197 L149.38284,28.2763896 L149.375488,28.2689582 Z" id="Fill-35"></path>
        </g>
    </g>
</svg>